<svg height="30" viewBox="0 0 89 41" fill="none" xmlns="http://www.w3.org/2000/svg">
	<path d="M88.4392 38.0683V33.1711C88.4392 31.8811 87.7225 31.0211 86.1457 31.0211C84.999 31.0211 84.1389 31.5944 83.685 32.0244V31.1644H81.5349V38.0683H83.685V33.6011C83.9717 33.3144 84.4017 32.8844 84.9751 32.8844C85.6918 32.8844 86.1218 33.1711 86.1218 34.0311V38.0683H88.4153H88.4392ZM77.0675 36.0616C76.2075 36.0616 75.4908 35.4883 75.4908 34.4849C75.4908 33.4816 76.0641 32.9083 77.0675 32.9083C77.4975 32.9083 78.0709 33.195 78.3576 33.4816V35.3449C78.0709 35.7749 77.4975 36.0616 77.0675 36.0616ZM76.6375 40.5288C78.3576 40.5288 80.5316 39.9555 80.5316 37.2083V31.3077H78.3815V32.1677C77.8081 31.4511 77.0914 31.1644 76.3747 31.1644C74.6546 31.1644 73.3407 32.3111 73.3407 34.6283C73.3407 36.9455 74.6307 38.0921 76.3747 38.0921C77.0914 38.0921 77.8081 37.8055 78.3815 37.0888V37.3755C78.3815 38.6655 77.3781 38.9521 76.6614 38.9521C75.8013 38.9521 75.0846 38.6655 74.4874 38.0921L73.484 39.5255C74.4874 40.2421 75.3474 40.5288 76.6614 40.5288M72.624 28.8711H70.4739V30.4477H72.624V28.8711ZM72.624 31.1883H70.4739V38.0921H72.624V31.1883V31.1883ZM66.7231 38.2355C68.7299 38.2355 69.9005 37.2321 69.9005 35.9422C69.9005 33.0516 65.8631 33.9355 65.8631 33.195C65.8631 32.9083 66.1498 32.765 66.7231 32.765C67.5832 32.765 68.2999 33.0516 68.7299 33.4816L69.5899 31.905C68.8732 31.3316 67.8698 31.045 66.6992 31.045C64.8358 31.045 63.6652 32.0483 63.6652 33.3383C63.6652 36.0855 67.7026 35.2016 67.7026 36.0855C67.7026 36.3722 67.4159 36.5155 66.8426 36.5155C65.9825 36.5155 64.9792 36.0855 64.4058 35.6555L63.5458 37.2321C64.2625 37.8055 65.5525 38.2355 66.7231 38.2355M61.2523 33.9116H58.3616C58.505 33.4816 58.7916 32.9083 59.795 32.9083C60.7984 32.765 61.2284 33.3383 61.2284 33.9116M59.9384 38.2355C60.9417 38.2355 62.0885 37.9488 62.8291 37.3755L61.8257 35.9422C61.3957 36.3722 60.679 36.5155 60.1056 36.5155C59.1022 36.5155 58.5289 35.9422 58.3855 35.3688H63.283V34.9388C63.283 32.6216 61.8496 31.045 59.6756 31.045C57.5016 31.045 56.0682 32.6216 56.0682 34.6522C56.2115 36.9455 57.7883 38.2594 59.9623 38.2594M52.1741 36.396C51.3141 36.396 50.5974 35.6794 50.5974 34.6761C50.5974 33.6727 51.1707 32.9561 52.1741 32.9561C52.6041 32.9561 53.1775 33.2427 53.4642 33.5294V35.6794C53.1775 36.1094 52.6041 36.396 52.1741 36.396ZM55.6382 38.116V28.895H53.4881V32.0722C52.9147 31.3555 52.198 31.0689 51.4813 31.0689C49.7612 31.0689 48.4473 32.3588 48.4473 34.6761C48.4473 36.9933 49.7373 38.2833 51.4813 38.2833C52.198 38.2833 52.9147 37.9966 53.4881 37.2799V38.1399H55.6382V38.116Z" fill="#231F20"/>
	<path d="M78.358 23.8065V21.346H80.6753V19.4827H78.358V17.046H76.2079V19.4827H73.8906V21.346H76.2079V23.8065H78.358ZM70.8566 19.626H67.9659C68.1092 19.196 68.3959 18.6227 69.3993 18.6227C70.4026 18.6227 70.6893 19.196 70.8327 19.626M69.3993 24.0932C70.4026 24.0932 71.5494 23.8065 72.29 23.2332L71.2866 21.7999C70.8566 22.2299 70.1399 22.3732 69.5665 22.3732C68.5631 22.3732 67.9897 21.7999 67.8464 21.2266H72.7439V20.7966C72.7439 18.5032 71.3105 16.9027 69.1365 16.9027C66.9625 16.9027 65.5291 18.4793 65.5291 20.5099C65.6724 22.6599 67.3925 24.1171 69.4231 24.1171M63.9523 24.1171C64.8124 24.1171 65.2424 23.9738 65.5291 23.6871L65.0991 22.1104C65.0991 22.2538 64.8124 22.2538 64.5257 22.2538C64.0957 22.2538 63.9523 21.9671 63.9523 21.5371V19.0766H65.3857V17.2132H63.9523V14.6094L61.8022 15.1827V17.1894H61.0855V19.0527H61.8022V22.2299C61.8022 23.3765 62.5189 24.0932 63.9523 24.0932M59.0549 23.8065V20.056C59.0549 19.0527 59.9149 18.9093 60.6316 18.9093V16.9027C60.2016 16.9027 59.3416 17.3327 59.0549 17.906V17.046H56.9048V23.8065H59.0549ZM52.1507 22.0865C51.2906 22.0865 50.5739 21.3699 50.5739 20.3666C50.5739 19.3632 51.1473 18.7899 52.1507 18.7899C52.5807 18.7899 53.1541 19.0766 53.4407 19.3632V21.5132C53.1541 21.7999 52.5807 22.0865 52.1507 22.0865ZM55.6147 23.8065V16.9027H53.4646V17.7627C52.8913 17.046 52.1746 16.7594 51.4579 16.7594C49.7378 16.7594 48.4238 18.0494 48.4238 20.3666C48.4238 22.6838 49.7139 23.9738 51.4579 23.9738C52.1746 23.9738 52.8913 23.6871 53.4646 22.9704V23.8304H55.6147V23.8065Z" fill="#231F20"/> <path d="M74.18 7.8248C73.3199 7.8248 72.6032 7.10814 72.6032 6.10482C72.6032 5.10149 73.1766 4.38483 74.18 4.38483C74.61 4.38483 75.1834 4.67149 75.47 4.95816V7.10814C75.1834 7.68147 74.61 7.8248 74.18 7.8248M77.644 9.68812V0.490967H75.4939V3.66817C74.9206 2.9515 74.2039 2.66484 73.4872 2.66484C71.7671 2.66484 70.4531 3.95483 70.4531 6.27204C70.4531 8.58924 71.7432 9.87923 73.4872 9.87923C74.2039 9.87923 74.9206 9.59257 75.4939 8.87591V9.7359H77.644V9.68812ZM66.2724 7.8248C65.4123 7.8248 64.6956 7.10814 64.6956 6.10482C64.6956 5.10149 65.269 4.52816 66.2724 4.52816C66.7024 4.52816 67.2758 4.81482 67.5624 5.10149V7.25147C67.2758 7.68147 66.7024 7.8248 66.2724 7.8248M69.7364 9.68812V2.78428H67.5863V3.64428C67.013 2.92762 66.2963 2.64095 65.5796 2.64095C63.8595 2.64095 62.5455 3.93094 62.5455 6.24815C62.5455 8.56535 63.8356 9.85534 65.5796 9.85534C66.2963 9.85534 67.013 9.56868 67.5863 8.85202V9.71201H69.7364V9.68812ZM58.9382 9.83146C60.9449 9.83146 62.1155 8.82813 62.1155 7.53814C62.1155 4.6476 58.0781 5.53149 58.0781 4.79094C58.0781 4.50427 58.3648 4.36094 58.9382 4.36094C59.7982 4.36094 60.5149 4.6476 60.9449 5.0776L61.805 3.50095C61.0883 2.92762 60.0849 2.64095 58.9143 2.64095C57.0508 2.64095 55.8802 3.64428 55.8802 4.95816C55.8802 7.70536 59.9176 6.82148 59.9176 7.70536C59.9176 7.99202 59.631 8.13536 59.0576 8.13536C58.1976 8.13536 57.1942 7.70536 56.6208 7.27536L55.7608 8.85202C56.4775 9.42535 57.7675 9.85534 58.9382 9.85534M53.4673 5.38815H50.5766C50.72 4.95816 51.0067 4.38483 52.01 4.38483C53.0134 4.38483 53.3001 4.95816 53.4435 5.38815M52.1534 9.85534C53.1568 9.85534 54.3035 9.56868 55.0441 8.99535L54.0407 7.56203C53.6107 7.99202 52.894 8.13536 52.3206 8.13536C51.3172 8.13536 50.7439 7.56203 50.6005 6.9887H55.498V6.5587C55.498 4.26538 54.0646 2.66484 51.8906 2.66484C49.7166 2.66484 48.2832 4.2415 48.2832 6.27204C48.4265 8.42202 50.0033 9.87923 52.1773 9.87923" fill="#231F20"/>
	<path d="M40.8997 40.8152V23.3764H11.6583V29.1575H35.1422V34.9147H5.75749V5.81822H34.9989V11.5754H11.6583V17.3326H40.8997V0.0610352H0V40.8152H40.8997Z" fill="#231F20"/>
</svg>
