<svg height="30" viewBox="0 0 106 45" fill="none" xmlns="http://www.w3.org/2000/svg"> 
	<path d="M50.1438 35.1059C46.7753 39.0476 41.7345 41.5798 35.7142 42.7025C35.0692 41.8664 34.5675 40.9109 33.9941 39.9792C40.0861 38.952 44.9119 36.6826 48.2087 32.8843C48.9254 33.5532 49.451 34.4132 50.1199 35.1059" fill="#231F20"/> 
	<path d="M47.6819 32.1437C44.409 35.9659 39.6071 38.2114 33.4435 39.1431C32.9418 38.2592 32.3445 37.447 31.8906 36.5153C38.0781 35.8703 42.7367 33.7203 45.8663 30.0176C46.5352 30.6387 47.0608 31.4509 47.6819 32.1437" fill="#231F20"/> 
	<path d="M45.366 29.3247C42.8814 32.3347 38.7245 34.628 33.7076 35.4641C33.182 35.5597 31.8442 35.8464 31.4381 35.703C31.1036 35.6075 30.8408 34.843 30.6258 34.5086C30.3391 34.0308 30.0047 33.6725 29.8613 33.2425C36.1205 32.9558 40.6596 30.9492 43.5742 27.2942C44.267 27.8675 44.697 28.6797 45.342 29.3008" fill="#231F20"/> 
	<path d="M2.69775 23.9736C4.22671 29.2769 7.52354 32.8125 11.6804 35.5119C10.8443 36.2047 9.84087 36.7063 8.95694 37.3274C4.82397 34.4847 1.50326 30.8058 0.09375 25.2397C1.00157 24.8575 1.78994 24.3797 2.72165 23.9975" fill="#231F20"/> 
	<path d="M15.2638 33.2425C14.4515 33.8875 13.5198 34.3891 12.6359 34.9386C8.43125 32.3347 4.99109 28.9425 3.60547 23.5198C4.44162 23.0898 5.32554 22.7075 6.1378 22.2537C7.52343 27.557 11.0114 30.7819 15.2638 33.2425Z" fill="#231F20"/> 
	<path d="M18.6807 31.0688C17.8924 31.666 16.9606 32.1438 16.1484 32.741C11.8482 30.3521 8.24078 27.2705 6.97461 21.8477C7.76298 21.4177 8.64692 21.0833 9.38751 20.6294C10.6298 25.9327 14.2133 28.9188 18.6568 31.0449" fill="#231F20"/> 
	<path d="M47.8262 20.916C47.0617 20.916 46.2494 21.1788 45.6044 21.1549C45.3416 16.5922 42.7853 14.0839 40.3008 11.8861C40.8025 11.8861 41.4714 11.6233 42.0209 11.695C42.6898 11.7667 43.6454 12.9372 44.0993 13.415C45.915 15.3022 47.4439 17.9061 47.8262 20.916Z" fill="#231F20"/> 
	<path d="M50.6696 20.4381C50.0007 20.5814 49.284 20.6531 48.5434 20.7487C47.8267 16.592 45.3899 13.8926 42.9531 11.6232C43.4309 11.6232 44.0521 11.3604 44.5777 11.4321C45.2705 11.5276 46.1305 12.7221 46.5844 13.1998C48.4001 15.1109 50.0007 17.667 50.6696 20.4381" fill="#231F20"/> 
	<path d="M53.3197 20.1038C52.603 20.1516 52.0296 20.3188 51.3129 20.3427C50.2857 16.4488 47.8728 13.6538 45.4121 11.3844C45.866 11.4322 46.5589 11.0977 47.0844 11.1933C47.3472 11.2411 47.8967 11.7905 48.2072 12.1011C50.2618 14.1555 52.4597 17.0699 53.3436 20.1038" fill="#231F20"/> 
	<path d="M44.7685 21.2981C43.9562 21.3697 43.1917 21.5131 42.4033 21.6086C42.9528 17.237 40.4444 14.1792 37.8643 12.292C35.3797 10.4765 32.2979 9.21038 28.6427 8.87593C24.5097 8.49372 20.9262 9.1626 18.1072 10.6915C15.336 12.1965 12.4691 14.7764 12.7558 19.1481C12.9708 22.2536 14.9059 24.6425 16.9366 26.243C19.0867 27.9391 21.8579 29.1097 24.7486 29.7308C31.5812 31.1641 38.4376 28.9664 41.3044 24.4992C41.9016 25.1203 42.475 25.7892 42.9767 26.5058C41.1133 28.9425 38.4376 30.6863 35.1647 31.6419C31.6528 32.6452 27.3526 32.693 23.6736 31.8808C20.3528 31.1641 17.271 29.7308 14.9059 27.7002C12.5886 25.7175 10.4863 23.2092 10.2713 19.4348C10.0085 15.3259 12.4692 12.507 15.0254 10.7154C17.7011 8.82816 21.1651 7.56206 25.4175 7.49039C30.7689 7.39483 35.1169 8.89982 38.4854 11.0259C41.8061 13.1281 44.6251 16.0664 44.8401 21.2981" fill="#231F20"/> 
	<path d="M19.7063 7.96823C15.7645 9.21044 12.5154 11.1693 10.6281 14.466C9.9831 14.1793 9.45753 13.7732 8.8125 13.4626C10.6998 10.5482 14.3789 8.30267 17.9385 7.15601C18.4163 7.01268 19.2047 7.96823 19.7063 7.96823" fill="#231F20"/> 
	<path d="M17.4846 6.84542C13.6383 8.1593 10.437 10.1182 8.26305 13.0804C7.6658 12.7937 7.16411 12.4115 6.54297 12.1248C8.8603 9.28207 12.0855 7.37097 15.9317 6.0332C16.4573 6.29598 16.959 6.58264 17.4846 6.84542" fill="#231F20"/> 
	<path d="M36.4788 8.15926C36.4788 8.61315 36.3833 8.94759 36.3355 9.37759C33.0387 7.96815 29.1207 6.91705 24.2949 7.20371C24.4622 6.84538 24.5816 6.41538 24.7488 6.03316C29.3118 5.88983 33.2537 6.7976 36.5027 8.15926" fill="#231F20"/> 
	<path d="M15.3585 5.84223C11.4884 7.08445 8.43043 9.16277 5.92198 11.7905C5.44418 11.4083 4.77527 11.2172 4.36914 10.7872C6.66258 8.44611 10.2939 6.29612 13.6385 5.10168C14.1163 4.93446 14.9285 5.60335 15.3585 5.86612" fill="#231F20"/> 
	<path d="M25.3445 4.57617C29.7881 4.62395 33.4194 5.43617 36.6923 6.65449C36.6684 7.0606 36.6206 7.44282 36.549 7.80115C33.276 6.48727 29.597 5.60339 24.8906 5.69894C25.0101 5.31672 25.1056 4.86284 25.3445 4.57617Z" fill="#231F20"/> 
	<path d="M25.7987 3.28613C30.075 3.3578 33.6108 4.17002 36.8837 5.24501C36.8837 5.62723 36.7881 5.93778 36.7404 6.29611C33.4435 5.14945 29.8361 4.28946 25.3926 4.28946C25.5359 3.95502 25.6076 3.54891 25.7987 3.28613" fill="#231F20"/> 
	<path d="M104.612 18.3837C105.281 19.7932 105.615 21.3937 105.567 23.1615C105.52 24.9053 105.018 26.4581 104.373 27.6764C103.083 30.137 100.885 32.0003 98.018 32.8125C94.4345 33.8397 91.0661 32.717 88.9637 31.1642C86.7897 29.5636 85.1652 27.1987 84.783 23.8781C84.5919 22.0865 84.7352 20.1037 84.7352 18.1926V0.992735C84.7352 0.992735 84.7352 0.873291 84.783 0.873291H89.3459V14.0838C90.5404 13.4388 91.8783 12.7699 93.4789 12.531C95.2229 12.2443 97.0385 12.4593 98.5436 12.961C101.195 13.8926 103.417 15.8993 104.612 18.3598M100.909 23.3287C101.076 21.2504 100.24 19.7215 99.2603 18.7182C98.1614 17.6193 96.5607 16.8787 94.5301 17.0698C92.1172 17.3087 90.3732 18.9332 89.7043 20.7965C88.2948 24.8098 91.2571 28.2737 94.6495 28.5364C98.0419 28.7753 100.67 26.3626 100.909 23.3287" fill="#231F20"/> 
	<path d="M81.9172 16.1381C83.7568 18.3359 84.9752 21.9909 83.8762 25.7414C82.9923 28.7753 80.7944 31.1641 78.0232 32.3586C76.5659 32.9797 74.6308 33.338 72.6957 33.123C70.8561 32.908 69.4705 32.3108 68.1088 31.4747V44.7329H63.498V23.8303C63.498 21.9431 63.6653 20.5576 64.1431 19.2198C65.4093 15.6843 68.6105 12.7221 73.1735 12.4115C77.2109 12.1248 80.1494 14.012 81.9172 16.1381M78.0232 26.8642C79.0027 25.8847 79.8149 24.3559 79.6716 22.3253C79.576 20.8442 78.8354 19.5303 78.0232 18.7181C76.972 17.667 75.3714 16.8787 73.2929 17.0698C72.1701 17.1892 71.2623 17.5715 70.5217 18.097C69.1361 19.1003 68.1088 20.6292 68.1088 22.7792C68.1088 25.4786 69.9006 27.2942 71.5251 28.0347C73.7946 29.0619 76.4225 28.4408 78.0232 26.8403" fill="#231F20"/> 
	<path d="M62.5665 13.176V33.1231C62.3992 33.1709 62.232 33.0037 62.1126 32.932C60.0341 31.427 58.1468 28.7992 57.9318 25.4309C57.6929 21.4415 58.1229 17.4521 57.9318 13.3194C57.9318 13.2477 57.9318 13.1999 57.9796 13.1999H62.5665V13.176Z" fill="#231F20"/> 
	<path d="M62.5659 7.56226V12.1967H57.9551V7.6817C57.9551 7.6817 57.9551 7.56226 58.0029 7.56226H62.5897H62.5659Z" fill="#231F20"/>
</svg>
