<svg height="30" viewBox="0 0 63 45" fill="none" xmlns="http://www.w3.org/2000/svg">
	<path d="M62.9315 1.41602H12.3086V5.95487H62.9315V1.41602Z" fill="#231F20"/>
	<path d="M6.38499 16.3464H1.32031V33.2119H6.38499V16.3464Z" fill="#231F20"/>
	<path d="M45.4679 16.3464L39.2326 33.2358H33.499L27.2637 16.3464H32.8539L36.3658 27.0486L39.8776 16.3464H45.4679Z" fill="#231F20"/>
	<path d="M45.8027 24.7791C45.8027 19.7386 49.6012 15.8687 54.7376 15.8687C58.0105 15.8687 60.9012 17.5886 62.3585 20.1925L57.9389 22.7486C57.3655 21.5781 56.1471 20.8614 54.6659 20.8614C52.468 20.8614 50.8674 22.4381 50.8674 24.7791C50.8674 27.1202 52.4919 28.6969 54.6659 28.6969C56.1471 28.6969 57.3894 27.9802 57.9389 26.8097L62.3585 29.3419C60.9012 31.9697 58.0344 33.6896 54.7376 33.6896C49.6012 33.6896 45.8027 29.8197 45.8027 24.7791" fill="#231F20"/>
	<path d="M18.0188 28.6969C16.0837 28.6969 14.4114 27.4308 14.4114 24.9464C14.4114 22.1753 16.0121 20.8614 18.0188 20.8614C20.2167 20.8614 21.8173 22.4381 21.8173 24.7791C21.8173 27.1202 20.1928 28.6969 17.9949 28.6969M17.9232 15.8687C13.5753 15.8687 9.70508 20.0492 9.70508 24.4208V44.2962H15.2715V32.6146C15.9165 33.2119 17.0632 33.6896 18.186 33.6896C23.2985 33.6896 26.9776 29.8197 26.9776 24.7791C26.9776 19.7386 23.0357 15.8687 17.9232 15.8687" fill="#231F20"/>
	<path d="M3.82717 6.95835C2.05931 6.95835 0.578125 5.47725 0.578125 3.6856C0.578125 1.89394 2.05931 0.412842 3.82717 0.412842C5.59503 0.412842 7.07621 1.89394 7.07621 3.6856C7.07621 5.47725 5.59503 6.95835 3.82717 6.95835Z" fill="#231F20"/>
</svg>
