<svg height="30" viewBox="0 0 142 39" fill="none" xmlns="http://www.w3.org/2000/svg">
<path d="M11.8454 22.2171L11.8164 22.018L11.75 21.5598L11.8184 22.018L11.8454 22.2171Z" fill="black"/>
<path d="M6.01523 18.6611C6.01523 18.6611 6.00904 18.6632 6.00697 18.6653H6.00491C5.976 18.6735 5.94503 18.6838 5.91406 18.6962C5.94297 18.6859 5.97394 18.6735 6.00491 18.6632C6.00904 18.6611 6.0111 18.6611 6.01523 18.6611Z" fill="black"/>
<path d="M7.36835 19.299C7.36835 19.299 7.35803 19.2907 7.34977 19.2845C7.31261 19.2453 7.27338 19.2061 7.23828 19.1648C7.27957 19.2102 7.32293 19.2556 7.36835 19.299V19.299Z" fill="black"/>
<path d="M5.20945 14.6841C5.18457 14.6841 5.15968 14.6862 5.13066 14.6882C5.09955 14.6903 5.06638 14.6924 5.0332 14.6965C5.09955 14.6862 5.15761 14.6841 5.20945 14.6841V14.6841Z" fill="black"/>
<path d="M5.38674 15.2786C5.38674 15.2786 5.38477 15.2667 5.38477 15.2607C5.38674 15.2667 5.38674 15.2726 5.38872 15.2786H5.38674Z" fill="black"/>
<path d="M4.40604 14.8545C4.40604 14.8545 4.4043 14.8597 4.4043 14.8632V14.858C4.4043 14.858 4.4043 14.8562 4.40604 14.8545Z" fill="black"/>
<path d="M4.40989 14.8418C4.40989 14.8418 4.4082 14.8452 4.4082 14.8469V14.8435H4.40989V14.8418Z" fill="black"/>
<path d="M4.41617 14.8335C4.41617 14.8335 4.41414 14.8355 4.41211 14.8376V14.8335H4.41617Z" fill="black"/>
<path d="M4.41755 14.9196C4.41755 14.9196 4.41392 14.9178 4.41211 14.916V14.9124C4.41211 14.9124 4.41573 14.9178 4.41755 14.9196V14.9196Z" fill="black"/>
<path d="M4.41575 14.8274C4.41575 14.8274 4.41406 14.8308 4.41406 14.8325V14.8274H4.41575Z" fill="black"/>
<path d="M4.42398 14.8169C4.42398 14.8169 4.42195 14.821 4.41992 14.821V14.8169H4.42398Z" fill="black"/>
<path d="M4.4278 14.8108C4.4278 14.8108 4.4278 14.8128 4.42578 14.8128L4.4278 14.8108Z" fill="black"/>
<path d="M4.43562 14.8003C4.43562 14.8003 4.43562 14.8023 4.43359 14.8044V14.8003H4.43562Z" fill="black"/>
<path d="M4.43561 14.7983H4.43359C4.43359 14.7983 4.43359 14.8004 4.43359 14.7983H4.43561Z" fill="black"/>
<path d="M4.99536 14.4211C4.96233 14.4356 4.93136 14.45 4.90039 14.4666C4.90039 14.4666 4.90246 14.4645 4.90452 14.4624C4.93342 14.448 4.96439 14.4356 4.99536 14.4211Z" fill="black"/>
<path d="M5.20329 14.3318C5.16612 14.3483 5.12896 14.3648 5.0918 14.3793C5.10006 14.3731 5.11038 14.3689 5.1207 14.3648C5.14754 14.3545 5.17438 14.3421 5.20329 14.3318V14.3318Z" fill="black"/>
<path d="M5.11161 11.2258C5.09715 11.2568 5.0827 11.2878 5.07031 11.3208C5.07857 11.2981 5.08889 11.2692 5.10128 11.2444C5.10335 11.2382 5.10541 11.23 5.11161 11.2258Z" fill="black"/>
<path d="M5.12907 11.1489C5.12907 11.1489 5.11919 11.1509 5.11523 11.1509H5.11721L5.12907 11.1489Z" fill="black"/>
<path d="M5.30106 11.149C5.30106 11.149 5.28913 11.149 5.28516 11.147H5.29708C5.29708 11.147 5.29907 11.149 5.30106 11.149Z" fill="black"/>
<path d="M5.33181 11.151C5.33181 11.151 5.31303 11.1489 5.30469 11.1489H5.32347C5.32347 11.1489 5.32764 11.151 5.33181 11.151Z" fill="black"/>
<path d="M7.36345 11.6195C7.36345 11.6195 7.35356 11.6155 7.34961 11.6135C7.34961 11.6135 7.35752 11.6155 7.36345 11.6195Z" fill="black"/>
<path d="M10.4693 14.6718C10.4693 14.7464 10.4091 14.8107 10.3303 14.8107C10.2515 14.8107 10.1914 14.7464 10.1914 14.6718C10.1914 14.593 10.2536 14.5308 10.3303 14.5308C10.407 14.5308 10.4693 14.593 10.4693 14.6718Z" fill="black"/>
<path d="M10.4693 14.0416C10.4693 14.1183 10.4091 14.1806 10.3303 14.1806C10.2515 14.1806 10.1914 14.1183 10.1914 14.0416C10.1914 13.9649 10.2536 13.9006 10.3303 13.9006C10.407 13.9006 10.4693 13.9628 10.4693 14.0416Z" fill="black"/>
<path d="M10.7858 14.3545C10.7858 14.4333 10.7215 14.4913 10.6469 14.4913C10.5681 14.4913 10.5059 14.4333 10.5059 14.3545C10.5059 14.2757 10.5681 14.2156 10.6469 14.2156C10.7215 14.2156 10.7858 14.2778 10.7858 14.3545Z" fill="black"/>
<path d="M11.0983 14.6718C11.0983 14.7464 11.0381 14.8107 10.9594 14.8107C10.8806 14.8107 10.8184 14.7464 10.8184 14.6718C10.8184 14.593 10.8826 14.5308 10.9594 14.5308C11.0361 14.5308 11.0983 14.593 11.0983 14.6718Z" fill="black"/>
<path d="M10.8184 14.0416C10.8184 13.9628 10.8826 13.9006 10.9594 13.9006C11.0361 13.9006 11.0983 13.9628 11.0983 14.0416C11.0983 14.1204 11.0381 14.1806 10.9594 14.1806C10.8806 14.1806 10.8184 14.1183 10.8184 14.0416Z" fill="black"/>
<path d="M12.1686 11.9204C12.1686 11.9971 12.1022 12.0614 12.0276 12.0614C11.9882 12.0614 11.9529 12.0448 11.9281 12.0179C11.9032 11.993 11.8887 11.9577 11.8887 11.9204C11.8887 11.881 11.9032 11.8478 11.9281 11.8209C11.9529 11.7939 11.9882 11.7773 12.0276 11.7773C12.1022 11.7773 12.1686 11.8416 12.1686 11.9204Z" fill="black"/>
<path d="M13.8618 14.6718C13.8618 14.7464 13.8017 14.8107 13.7229 14.8107C13.6483 14.8107 13.584 14.7464 13.584 14.6718C13.584 14.593 13.6483 14.5308 13.7229 14.5308C13.8017 14.5308 13.8618 14.593 13.8618 14.6718Z" fill="black"/>
<path d="M13.8618 14.0416C13.8618 14.1183 13.8017 14.1806 13.7229 14.1806C13.6483 14.1806 13.584 14.1183 13.584 14.0416C13.584 13.9649 13.6483 13.9006 13.7229 13.9006C13.8017 13.9006 13.8618 13.9628 13.8618 14.0416Z" fill="black"/>
<path d="M14.1803 14.3545C14.1803 14.4333 14.1181 14.4913 14.0393 14.4913C13.9647 14.4913 13.9004 14.4333 13.9004 14.3545C13.9004 14.2757 13.9647 14.2156 14.0393 14.2156C14.1181 14.2156 14.1803 14.2778 14.1803 14.3545Z" fill="black"/>
<path d="M14.4927 14.6718C14.4927 14.7464 14.4326 14.8107 14.3558 14.8107C14.2791 14.8107 14.2148 14.7464 14.2148 14.6718C14.2148 14.593 14.277 14.5308 14.3558 14.5308C14.4346 14.5308 14.4927 14.593 14.4927 14.6718Z" fill="black"/>
<path d="M14.2148 14.0416C14.2148 13.9628 14.277 13.9006 14.3558 13.9006C14.4346 13.9006 14.4927 13.9628 14.4927 14.0416C14.4927 14.1204 14.4326 14.1806 14.3558 14.1806C14.2791 14.1806 14.2148 14.1183 14.2148 14.0416Z" fill="black"/>
<path d="M17.4442 19.2168C17.4256 19.2374 17.405 19.2602 17.3843 19.2808C17.3843 19.2829 17.3823 19.2829 17.3802 19.2849C17.3616 19.3014 17.3451 19.318 17.3306 19.3365C17.3265 19.3386 17.3244 19.3407 17.3203 19.3427C17.3616 19.3014 17.4029 19.2602 17.4442 19.2168Z" fill="black"/>
<path d="M18.0417 18.4885C18.0253 18.4742 18.0068 18.4577 17.9883 18.4392C18.0068 18.4557 18.0253 18.4721 18.0417 18.4885Z" fill="black"/>
<path d="M18.5021 18.9759H18.5C18.4877 18.9615 18.4753 18.943 18.4609 18.9265C18.4774 18.945 18.4897 18.9594 18.5021 18.9759Z" fill="black"/>
<path d="M18.625 19.214C18.625 19.214 18.6231 19.2041 18.6211 19.2002C18.6211 19.2002 18.6218 19.2002 18.6231 19.2002C18.6231 19.2002 18.625 19.2081 18.625 19.2121V19.214Z" fill="black"/>
<path d="M19.3636 15.1426V15.1573C19.3636 15.1573 19.3594 15.1699 19.3594 15.1763C19.3615 15.1657 19.3636 15.1552 19.3636 15.1426Z" fill="black"/>
<path d="M19.3889 14.8708C19.3889 14.8914 19.3868 14.9099 19.3848 14.9305V14.8996C19.3848 14.8996 19.3889 14.8811 19.3889 14.8708Z" fill="black"/>
<path d="M19.8377 14.7175C19.7527 14.7009 19.676 14.6926 19.6055 14.6885C19.6739 14.6906 19.7527 14.6988 19.8377 14.7175Z" fill="black"/>
<path d="M19.4969 14.319C19.4742 14.3108 19.4494 14.3025 19.4246 14.2922C19.4205 14.2901 19.4102 14.2839 19.4102 14.2839C19.4391 14.2963 19.468 14.3066 19.4969 14.319V14.319Z" fill="black"/>
<path d="M12.8099 2.97127V6.45676C15.3063 6.59776 17.4897 7.89575 18.8374 9.81992C18.9349 9.86554 19.0157 9.91323 19.0759 9.96092C19.0779 9.96092 19.0821 9.96092 19.0842 9.96299C19.0842 9.96299 19.2065 10.1683 19.2397 10.2118C19.2687 10.2512 19.2438 10.303 19.2065 10.3217C19.2086 10.3196 19.2127 10.3176 19.2148 10.3134C19.2065 10.3217 19.1961 10.3238 19.1837 10.3258L19.306 10.5394H19.3081C19.3827 10.5767 19.4346 10.612 19.4615 10.6431C19.4615 10.6431 19.5569 10.8069 19.5776 10.8463C19.5963 10.8774 19.5818 10.9147 19.5465 10.9354H19.5445C19.5445 10.9354 19.5486 10.9313 19.5507 10.9271C19.5528 10.923 19.5528 10.9189 19.5528 10.9126C19.5548 10.9085 19.5528 10.9064 19.5507 10.9023C19.5507 10.8981 19.5465 10.8919 19.5424 10.8878C19.5382 10.8815 19.532 10.8774 19.5258 10.8712C19.5196 10.8649 19.5113 10.8608 19.503 10.8546C19.4802 10.8421 19.4594 10.8318 19.4346 10.8193L19.3102 10.7592L19.0862 10.668L18.9203 10.6078L18.5824 10.5C18.5533 10.4917 18.5243 10.4834 18.4953 10.4751L18.1988 10.3943C17.9355 10.3258 17.6452 10.2574 17.3341 10.1911V8.67122H16.5421C15.4825 7.89367 14.2011 7.40019 12.8099 7.31725V8.67122H11.9286V0C11.827 0.0331754 11.7254 0.0663508 11.6238 0.1016C11.5616 0.122334 11.4974 0.145142 11.4351 0.165877C11.2776 0.221861 11.12 0.279917 10.9645 0.340048C10.8878 0.369076 10.811 0.398105 10.7343 0.429207C10.3383 0.584717 9.95469 0.75474 9.5794 0.933058C9.49646 0.974528 9.41352 1.016 9.33058 1.05747C9.05896 1.19224 8.79356 1.33531 8.53437 1.4846C8.44729 1.53229 8.36227 1.58413 8.27726 1.63389C8.10724 1.73549 7.93929 1.84124 7.77341 1.94698C7.53911 2.09834 7.3131 2.258 7.08917 2.41973C7.05599 2.44254 7.02489 2.46535 6.99172 2.49023C2.34923 5.91974 0 11.7151 0 19.6481V35.3795C0 35.3795 1.32287 25.2672 11.9286 22.3519V20.2764C11.9971 20.2847 12.0676 20.2888 12.1381 20.2888C12.2044 20.293 12.2728 20.2951 12.3413 20.2951C12.4283 20.2951 12.5154 20.293 12.6004 20.2868C12.6709 20.2847 12.7414 20.2805 12.8099 20.2722V21.3712C14.564 21.2551 16.144 20.5045 17.3176 19.3433C17.359 19.3019 17.4005 19.2604 17.442 19.2169C17.4834 19.1754 17.5228 19.1318 17.5622 19.0883C17.6431 19.0033 17.7198 18.9141 17.7965 18.8229C17.8712 18.8416 17.9396 18.8623 18.0039 18.8872C18.035 18.8975 18.0619 18.91 18.0889 18.9224C18.2195 18.9805 18.3253 19.0448 18.4041 19.1028C18.4144 19.1132 18.4269 19.1215 18.4372 19.1298C18.46 19.1484 18.4808 19.165 18.4974 19.1816C18.5243 19.2044 18.543 19.2251 18.5554 19.2397C18.5181 19.2853 18.4808 19.3309 18.4393 19.3827C17.0812 21.0166 15.0741 22.099 12.8099 22.2234V22.3457C12.8099 22.3457 12.8099 22.3519 12.8099 22.354V23.9112C9.06103 24.6514 3.56843 27.6621 1.9532 31.8919C10.0003 22.1176 26.4242 31.5623 27.1478 13.181C27.378 7.36494 27.4029 0.203199 27.4029 0.203199C18.8333 0.68839 12.8099 2.97127 12.8099 2.97127ZM4.98668 11.1822L5.0862 10.9935V10.9873C5.11731 10.9645 5.15878 10.952 5.21891 10.9479L5.57554 10.2429C5.5631 10.2118 5.55481 10.1807 5.55066 10.1496C5.55066 10.1434 5.55066 10.1372 5.55481 10.1309C5.55066 10.1372 5.55066 10.1434 5.54859 10.1517C5.54029 10.104 5.55481 10.0542 5.55895 10.0521L5.67299 9.8448C5.67299 9.8448 5.67507 9.8448 5.67507 9.83651C5.73105 9.79711 5.81399 9.7743 5.92596 9.76808C7.26334 7.88953 9.40108 6.62057 11.8436 6.46298L11.8146 6.66826L11.7482 7.12234C11.5637 7.13686 11.3792 7.15967 11.1988 7.1887C11.0225 7.21772 10.8463 7.2509 10.6742 7.29237C10.5539 7.3214 10.4357 7.3525 10.3176 7.38775C10.2595 7.40434 10.2014 7.423 10.1434 7.44166C9.77016 7.55985 9.41145 7.70914 9.06725 7.88745C9.01749 7.91233 8.96773 7.93722 8.91796 7.96417C8.84124 8.00564 8.76453 8.04918 8.68781 8.0948C8.61316 8.14042 8.53645 8.18603 8.46387 8.23372C8.25238 8.3685 8.04711 8.51571 7.8522 8.67122H7.34835V11.6114C7.34835 11.6114 7.35665 11.6155 7.36287 11.6197C7.35665 11.6197 7.3525 11.6155 7.34835 11.6135V11.8457C7.23638 11.7959 7.12857 11.7482 7.02489 11.7047C6.91293 11.657 6.80718 11.6135 6.70351 11.572C6.56666 11.516 6.43396 11.4663 6.31162 11.4206C6.25771 11.402 6.2038 11.3833 6.15404 11.3647C6.11672 11.3522 6.08147 11.3398 6.04622 11.3273H6.04414C6.04414 11.3273 6.0317 11.3253 6.02548 11.3232C6.02134 11.3232 6.01512 11.317 6.00682 11.3149H6.00267C5.93632 11.2921 5.87205 11.2734 5.80984 11.2548C5.62116 11.2008 5.45943 11.1656 5.3288 11.1511C5.32051 11.1511 5.31014 11.149 5.30184 11.149H5.29977C5.29977 11.149 5.28733 11.149 5.28318 11.1469H5.27074C5.27074 11.1469 5.2583 11.1469 5.25415 11.1449H5.20854C5.18573 11.1449 5.16085 11.1449 5.14011 11.1469C5.13597 11.1469 5.13182 11.1469 5.12975 11.149H5.12767C5.12767 11.149 5.11731 11.1511 5.11316 11.1511C5.11109 11.1511 5.10694 11.1511 5.10279 11.1511C5.10279 11.1511 5.08828 11.1573 5.08206 11.1594C5.06754 11.1656 5.0551 11.1718 5.04266 11.1822C5.03644 11.1863 5.03022 11.1926 5.02607 11.1988C5.00327 11.2237 4.98668 11.261 4.97631 11.3128C4.97424 11.3045 4.97424 11.2983 4.97424 11.2921C4.96387 11.2402 4.97631 11.1905 4.9846 11.1801L4.98668 11.1822ZM4.44758 14.7838C4.44758 14.7838 4.44343 14.7921 4.44136 14.7942L4.43514 14.8004C4.43514 14.8004 4.43514 14.8025 4.43306 14.8045H4.43099V14.8107H4.42892C4.42892 14.8107 4.42892 14.8128 4.42684 14.8128V14.817C4.42477 14.819 4.42477 14.8211 4.4227 14.8211H4.42062V14.8253C4.42062 14.8253 4.41855 14.8315 4.41855 14.8336C4.41648 14.8336 4.41648 14.8356 4.4144 14.8377C4.41233 14.8398 4.41233 14.8418 4.41233 14.8418C4.41233 14.8439 4.41026 14.846 4.41026 14.8481L4.40818 14.8522C4.40818 14.8522 4.40611 14.8605 4.40611 14.8647H4.40403V14.8688V14.8937H4.40611V14.8978H4.40818V14.9041L4.41026 14.9061H4.41233C4.41233 14.9061 4.41233 14.9082 4.4144 14.9103C4.4144 14.9144 4.41855 14.9165 4.42062 14.9186C4.41855 14.9165 4.41648 14.9165 4.4144 14.9144C4.39781 14.902 4.36464 14.8833 4.36464 14.8522V14.6386C4.36464 14.6386 4.36464 14.6386 4.36671 14.6324C4.37915 14.591 4.40818 14.5495 4.44965 14.5101V14.2219C4.43306 14.2219 4.41855 14.2198 4.40611 14.2136C4.3833 14.2074 4.36464 14.1908 4.36464 14.1638V13.9586C4.36464 13.9586 4.36464 13.9565 4.36671 13.9544C4.38123 13.9046 4.42477 13.8507 4.49112 13.7989C4.5471 12.9674 4.72957 12.1733 5.024 11.431C5.02815 11.4227 5.03229 11.4123 5.03437 11.404C5.03851 11.3958 5.04266 11.3875 5.04473 11.3792C5.05303 11.3584 5.06132 11.3377 5.07169 11.319C5.07998 11.2962 5.09035 11.2672 5.10279 11.2423C5.10487 11.2361 5.10694 11.2278 5.11316 11.2237C5.14841 11.2319 5.21476 11.2527 5.30184 11.29C5.3288 11.3004 5.35783 11.3149 5.391 11.3315C5.42003 11.346 5.45321 11.3647 5.48638 11.3854C5.5237 11.4082 5.5631 11.4351 5.6025 11.4642C5.63152 11.4849 5.66055 11.5098 5.68543 11.5347C5.71446 11.5596 5.73934 11.5844 5.76423 11.6135C5.79118 11.6404 5.81606 11.6674 5.83887 11.6985C5.81606 11.7503 5.79533 11.8042 5.77667 11.8561C5.75593 11.9079 5.73727 11.9618 5.71654 12.0157C5.70202 12.0551 5.68958 12.0945 5.67714 12.1339C5.54859 12.5258 5.45321 12.9322 5.39515 13.3469C5.77667 13.21 6.24112 13.0773 6.7512 12.9633C6.88804 12.9301 7.02282 12.9032 7.16589 12.8762C7.22602 12.8638 7.28822 12.8513 7.3525 12.841V13.7367C7.30066 13.7471 7.24883 13.7554 7.19699 13.7657C6.55214 13.8943 5.86375 14.0788 5.32673 14.282H5.32465C5.28318 14.2965 5.24379 14.3131 5.20647 14.3297C5.16914 14.3463 5.13182 14.3629 5.0945 14.3774C5.0634 14.3919 5.03022 14.4043 4.99912 14.4189C4.96594 14.4334 4.93484 14.4479 4.90374 14.4645C4.89752 14.4666 4.89545 14.4666 4.8913 14.4707C4.72957 14.5495 4.60101 14.6366 4.51393 14.7154C4.49941 14.7257 4.48697 14.7402 4.47661 14.7506C4.46624 14.7631 4.46002 14.7713 4.44965 14.7817L4.44758 14.7838ZM5.77045 18.8042C5.73727 18.7939 5.70202 18.7731 5.68336 18.7441C5.66263 18.7109 5.5942 18.6031 5.5942 18.6031V18.5907C5.60042 18.5616 5.61494 18.5326 5.64189 18.5036L5.45735 18.205C5.44077 18.205 5.42625 18.205 5.41174 18.2029H5.40552H5.40137H5.39515C5.36612 18.1988 5.35161 18.1843 5.34539 18.1739C5.33502 18.1552 5.25208 18.008 5.25208 18.008C5.24793 18.006 5.24793 18.0018 5.24793 17.9977C5.25208 17.9603 5.27282 17.9209 5.30599 17.8815C4.84154 16.9609 4.5554 15.9346 4.48697 14.8564C4.55332 14.8232 4.61968 14.7962 4.68395 14.7755C4.6881 14.7734 4.69017 14.7713 4.69432 14.7713C4.73164 14.7589 4.76896 14.7485 4.80629 14.7402C4.88715 14.7195 4.96387 14.705 5.03229 14.6988C5.09865 14.6884 5.1567 14.6863 5.20854 14.6863C5.26038 14.6863 5.29977 14.6884 5.33295 14.6926C5.33709 14.7693 5.34124 14.846 5.34746 14.9227C5.35161 14.9683 5.35575 15.0139 5.3599 15.0596C5.36612 15.1197 5.37234 15.1819 5.38064 15.242C5.38064 15.2482 5.38064 15.2565 5.38271 15.2628C5.38478 15.269 5.38478 15.2752 5.38686 15.2814C5.48846 16.0527 5.71654 16.7847 6.04829 17.4586C6.3054 17.3528 6.59776 17.2554 6.88597 17.1745C7.13064 17.1061 7.37945 17.0397 7.63864 16.9796C7.66352 17.048 7.6884 17.1144 7.71743 17.1828C7.77963 17.33 7.84806 17.4731 7.9227 17.6161C7.92477 17.6203 7.92685 17.6265 7.931 17.6307C7.96002 17.6846 7.98905 17.7385 8.02015 17.7903C8.0243 17.7986 8.03052 17.8069 8.03467 17.8152C7.72158 17.8795 7.42092 17.9583 7.12649 18.0433C6.93781 18.093 6.71802 18.1677 6.5086 18.2527C6.4775 18.2651 6.4464 18.2776 6.41737 18.29C6.38419 18.3045 6.35102 18.319 6.31784 18.3336C6.29296 18.3439 6.26808 18.3564 6.2432 18.3667C6.18929 18.3937 6.13952 18.4186 6.09183 18.4435C6.04414 18.4683 5.99853 18.4953 5.95913 18.5222C5.93218 18.5388 5.9073 18.5554 5.88449 18.5741C5.86997 18.5865 5.85546 18.5969 5.84094 18.6093C5.8057 18.6384 5.77667 18.6695 5.75386 18.7006C5.73934 18.7151 5.71032 18.7648 5.77459 18.8063H5.77045V18.8042ZM5.85339 18.8042C5.83887 18.7835 5.82643 18.7628 5.81192 18.74C5.84509 18.7234 5.88034 18.7089 5.91352 18.6964C5.94254 18.686 5.97365 18.6736 6.00475 18.6632C6.00889 18.6612 6.01097 18.6612 6.01512 18.6612C6.06073 18.6487 6.10427 18.6363 6.14782 18.6259C6.23283 18.6073 6.31162 18.5969 6.38419 18.5907H6.38627C6.42359 18.5865 6.46091 18.5865 6.49409 18.5865C6.53763 18.5844 6.57702 18.5844 6.61227 18.5865C6.62264 18.5865 6.63508 18.5865 6.64545 18.5886C6.69728 18.5907 6.73668 18.5969 6.75742 18.599C6.84865 18.7213 6.94403 18.8374 7.04355 18.9515C7.10576 19.024 7.17003 19.0966 7.23846 19.165C7.27993 19.2106 7.32347 19.2563 7.36909 19.2998C8.5012 20.4423 10.0231 21.197 11.7192 21.3525L11.7503 21.5599L11.8187 22.0181L11.8457 22.2172C9.35754 22.0596 7.18455 20.7429 5.85339 18.8042ZM12.8099 19.9363C12.6564 19.9509 12.5009 19.9592 12.3413 19.9592C12.2023 19.9592 12.0634 19.9529 11.9286 19.9405C9.37205 19.7228 7.68425 17.4917 7.68425 15.4017V9.00505H17.0003V15.4017C17.0003 17.4751 15.3374 19.6896 12.8099 19.9363ZM20.2349 14.9642C20.1955 15.4743 20.1064 15.9698 19.9757 16.4488C19.843 16.9257 19.6668 17.386 19.4512 17.8235C19.503 17.9334 19.5154 18.0205 19.4802 18.091C19.4802 18.091 19.4159 18.1863 19.3827 18.2382C19.3537 18.2817 19.3392 18.3045 19.2915 18.3108C19.277 18.3149 19.2625 18.3149 19.2438 18.3149H19.221L18.7711 19.0054C18.7773 19.0178 18.7794 19.0261 18.7814 19.0365C18.7939 19.0862 18.7897 19.1298 18.7648 19.1567C18.7648 19.1567 18.7006 19.2625 18.6757 19.2977C18.6549 19.3309 18.6135 19.3765 18.5409 19.3827C18.543 19.3827 18.5492 19.3786 18.5575 19.3744C18.5658 19.3703 18.5762 19.3682 18.5865 19.362C18.5948 19.3558 18.6052 19.3496 18.6114 19.3413C18.6197 19.3309 18.6259 19.3164 18.6301 19.2977C18.6342 19.2811 18.6342 19.2625 18.6301 19.2376C18.6301 19.2314 18.6301 19.2231 18.6259 19.2148C18.6238 19.2106 18.6238 19.2044 18.6218 19.2003C18.6218 19.194 18.6176 19.192 18.6176 19.1858C18.6176 19.1795 18.6135 19.1733 18.6114 19.1712C18.6073 19.1505 18.5969 19.1318 18.5865 19.1111C18.5679 19.0738 18.5388 19.0282 18.5015 18.9763C18.4891 18.9618 18.4766 18.9432 18.4621 18.9266C18.4435 18.9017 18.4227 18.8768 18.3999 18.8519C18.3584 18.8042 18.3107 18.7524 18.2548 18.6964L18.1988 18.6404C18.176 18.6156 18.1532 18.5927 18.1283 18.5699C18.1034 18.5471 18.0785 18.5222 18.0516 18.4974C18.0495 18.4953 18.0453 18.4932 18.0453 18.4911C18.0453 18.4911 18.0412 18.4911 18.0412 18.4891C18.0246 18.4746 18.006 18.458 17.9873 18.4393C17.9748 18.4289 17.9624 18.4165 17.9479 18.4061C17.9168 18.3771 17.8836 18.3481 17.8504 18.319C17.7488 18.2257 17.6369 18.1324 17.5145 18.0329C17.4814 18.0039 17.4461 17.9769 17.4109 17.9479C17.2346 17.8048 17.0397 17.6535 16.8262 17.4897C16.8614 17.4212 16.8925 17.3528 16.9215 17.2844C17.0916 16.9029 17.2118 16.5048 17.2761 16.1046V16.1004C17.2906 16.0134 17.303 15.9283 17.3113 15.8413C17.9375 16.3016 18.4683 16.7308 18.8499 17.0957C19.0924 16.5255 19.2625 15.9138 19.3475 15.2793C19.3516 15.2441 19.3558 15.2109 19.3599 15.1757C19.362 15.1653 19.3641 15.1549 19.3641 15.1425C19.3661 15.128 19.3661 15.1135 19.3682 15.0969C19.3703 15.0803 19.3724 15.0637 19.3744 15.0471C19.3744 15.0347 19.3765 15.0202 19.3786 15.0077C19.3807 14.9828 19.3827 14.9559 19.3848 14.931V14.8999C19.3848 14.8999 19.389 14.8812 19.389 14.8709C19.391 14.8522 19.3931 14.8336 19.3931 14.8149C19.3972 14.7879 19.3993 14.7631 19.3993 14.7361C19.4014 14.7195 19.4035 14.705 19.4035 14.6884C19.4429 14.6843 19.4947 14.6822 19.5569 14.6863C19.5714 14.6863 19.588 14.6863 19.6046 14.6884C19.673 14.6905 19.7518 14.6988 19.8368 14.7174C19.9032 14.7299 19.9716 14.7465 20.0442 14.7713C20.1084 14.7942 20.1748 14.8211 20.2432 14.8543C20.2411 14.8916 20.2411 14.9269 20.2349 14.9642V14.9642ZM20.3656 13.9606V14.1659C20.3656 14.1908 20.3531 14.2074 20.3282 14.2157C20.3282 14.2157 20.3282 14.2177 20.3241 14.2157C20.3116 14.2219 20.2951 14.224 20.2805 14.224V14.508C20.3262 14.5495 20.3531 14.5951 20.3656 14.6345V14.8543C20.3656 14.8854 20.3344 14.9041 20.3179 14.9144C20.322 14.9103 20.3241 14.9041 20.3241 14.8999C20.3262 14.8937 20.3282 14.8854 20.3282 14.8771C20.3282 14.8688 20.3282 14.8605 20.3241 14.8522C20.3241 14.8481 20.322 14.8439 20.3199 14.8398C20.3179 14.8336 20.3137 14.8294 20.3116 14.8273C20.3116 14.8273 20.3054 14.8149 20.3033 14.8107H20.3013V14.8066C20.2992 14.8025 20.2971 14.8004 20.2951 14.7983H20.293C20.293 14.7983 20.293 14.7942 20.2909 14.7942C20.2909 14.7921 20.2868 14.7879 20.2847 14.7838L20.2785 14.7776C20.2785 14.7776 20.264 14.7631 20.2577 14.7548C20.2536 14.7485 20.2474 14.7423 20.2411 14.7361C20.237 14.734 20.2328 14.7299 20.2308 14.7257C20.2266 14.7195 20.2204 14.7154 20.2163 14.7112C20.2121 14.7071 20.2059 14.7029 20.2017 14.6988C20.1852 14.6843 20.1665 14.6698 20.1458 14.6552C20.1188 14.6345 20.0856 14.6138 20.0525 14.591C19.9343 14.5163 19.785 14.4417 19.615 14.367C19.6004 14.3608 19.5859 14.3546 19.5693 14.3484C19.5465 14.338 19.5237 14.3276 19.4988 14.3193C19.476 14.311 19.4512 14.3027 19.4263 14.2924C19.4221 14.2903 19.4118 14.2841 19.4118 14.2841C18.8747 14.0809 18.1822 13.8963 17.5394 13.7678C17.4689 13.7574 17.4026 13.745 17.3362 13.7284V12.8347C17.415 12.8492 17.4917 12.8638 17.5685 12.8783C18.2423 13.0089 18.8602 13.1748 19.3413 13.351C19.2376 12.5963 19.0095 11.8809 18.686 11.2257C18.6135 11.0744 18.5326 10.9292 18.4497 10.7841C18.4828 10.7841 18.5513 10.782 18.6425 10.782H18.6943C18.6943 10.782 18.7109 10.782 18.7192 10.7841C18.7794 10.7841 18.8457 10.7862 18.9183 10.7944C18.9639 10.7965 19.0095 10.8007 19.0593 10.809C19.0842 10.811 19.109 10.8131 19.1339 10.8193C19.1588 10.8214 19.1837 10.8256 19.2106 10.8318C19.2936 10.8442 19.3807 10.8649 19.4698 10.8898C19.4802 10.9126 19.4926 10.9334 19.503 10.9583C19.7103 11.3937 19.8783 11.8519 20.0048 12.3267C20.1292 12.8016 20.21 13.295 20.2432 13.801C20.3096 13.8528 20.3531 13.9067 20.3676 13.9565V13.9606H20.3656Z" fill="black"/>
<path d="M18.692 10.7822C18.692 10.7822 18.6838 10.7822 18.6797 10.7843C18.6653 10.7822 18.653 10.7822 18.6406 10.7822H18.692Z" fill="black"/>
<path d="M18.4961 10.4731C18.525 10.4814 18.5539 10.4897 18.5828 10.5C18.5539 10.4917 18.525 10.4835 18.4961 10.4752V10.4731Z" fill="black"/>
<path d="M18.584 10.5C18.7042 10.5352 18.8183 10.5705 18.922 10.6078L18.584 10.5Z" fill="black"/>
<path d="M19.5504 10.9272C19.5504 10.9272 19.5504 10.9327 19.5467 10.9345H19.5449C19.5449 10.9345 19.5485 10.9309 19.5504 10.9272Z" fill="black"/>
<path d="M20.0508 14.5911C19.9326 14.5165 19.7833 14.4418 19.6133 14.3672C19.7833 14.4398 19.9326 14.5144 20.0508 14.5911Z" fill="black"/>
<path d="M20.1981 14.6984C20.1816 14.6841 20.1631 14.6697 20.1426 14.6553C20.159 14.6676 20.1755 14.6799 20.1899 14.6902C20.1919 14.6902 20.196 14.6964 20.1981 14.6984V14.6984Z" fill="black"/>
<path d="M20.2984 14.802V14.8056C20.2984 14.8056 20.2948 14.8002 20.293 14.7983H20.2966L20.2984 14.802V14.802Z" fill="black"/>
<path d="M20.3106 14.8207V14.8246C20.3106 14.8246 20.3047 14.8147 20.3027 14.8108H20.3067V14.8147H20.3087C20.3087 14.8147 20.3087 14.8207 20.3106 14.8207Z" fill="black"/>
<path d="M20.3206 14.8396C20.3206 14.8396 20.3145 14.8294 20.3125 14.8274H20.3166L20.3186 14.8335C20.3186 14.8355 20.3206 14.8376 20.3206 14.8396Z" fill="black"/>
<path d="M10.5862 29.2151V38.9065C10.5862 38.9065 0.525807 38.8049 1.1126 34.9026C1.85697 29.9242 10.5862 29.2151 10.5862 29.2151Z" fill="black"/>
<path d="M5.11574 11.1492H5.11366C5.11366 11.1492 5.12196 11.1492 5.12818 11.1492H5.11574ZM18.5808 10.5002L18.9188 10.6081C18.8151 10.5707 18.7011 10.5355 18.5808 10.5002ZM19.5429 10.9357H19.545C19.545 10.9357 19.5491 10.9315 19.5491 10.9274C19.5491 10.9315 19.545 10.9336 19.5429 10.9357ZM5.09915 11.2446C5.08671 11.2695 5.07634 11.2985 5.06805 11.3213C5.08049 11.2882 5.095 11.2571 5.10951 11.226C5.10329 11.2301 5.10122 11.2384 5.09915 11.2446ZM18.6223 19.2026H18.6202C18.6223 19.2067 18.6223 19.2129 18.6243 19.2171C18.6243 19.2129 18.6243 19.2088 18.6223 19.2046V19.2026ZM19.3832 14.9001V14.9312C19.3853 14.9105 19.3874 14.8918 19.3874 14.8711C19.3874 14.8815 19.3853 14.8918 19.3832 14.9001ZM18.6389 10.7822C18.6513 10.7822 18.6637 10.7822 18.6783 10.7843L18.6389 10.7822ZM20.3163 14.8338C20.3163 14.8338 20.3142 14.8338 20.3142 14.8276H20.3101C20.3101 14.8276 20.3163 14.8338 20.3184 14.84C20.3184 14.8379 20.3163 14.8359 20.3163 14.8338ZM20.308 14.8172H20.3059V14.811H20.3018C20.3018 14.811 20.308 14.8193 20.3101 14.8255V14.8213C20.3101 14.8213 20.308 14.8213 20.308 14.8172ZM20.2956 14.8006H20.2935L20.2914 14.7985C20.2935 14.8006 20.2956 14.8027 20.2976 14.8068V14.8027H20.2956V14.8006ZM19.4081 14.2822C19.4081 14.2822 19.4185 14.2885 19.4226 14.2905C19.4475 14.3009 19.4724 14.3092 19.4952 14.3175C19.4662 14.305 19.4371 14.2947 19.4081 14.2822V14.2822ZM4.90424 14.4606L4.9001 14.4647C4.9312 14.4481 4.9623 14.4336 4.99547 14.4191C4.96437 14.4336 4.93327 14.446 4.90424 14.4606ZM4.43357 14.7965H4.43564H4.43357ZM4.43149 14.7985V14.8027L4.43357 14.7985H4.43149ZM4.42527 14.8089C4.42527 14.8089 4.42735 14.811 4.42735 14.8089H4.42527ZM4.41905 14.8151V14.8193C4.41905 14.8193 4.42113 14.8193 4.4232 14.8151H4.41905ZM4.4149 14.8255V14.8317C4.4149 14.8317 4.41698 14.8276 4.41698 14.8255H4.4149ZM4.41076 14.9105V14.9146C4.41076 14.9146 4.4149 14.9167 4.41698 14.9188C4.4149 14.9167 4.41283 14.9146 4.41076 14.9105V14.9105ZM4.41076 14.8317V14.8359C4.41076 14.8359 4.41076 14.8317 4.4149 14.8317H4.41076ZM4.40661 14.8421V14.8462C4.40661 14.8462 4.40868 14.8421 4.40868 14.84H4.40661V14.8421ZM4.40246 14.8587V14.8649C4.40246 14.8649 4.40454 14.8587 4.40454 14.8545C4.40454 14.8545 4.40385 14.8559 4.40246 14.8587ZM4.40039 14.8649C4.40039 14.8649 4.40039 14.867 4.40246 14.8649H4.40039ZM5.38114 15.2609C5.38114 15.2609 5.38321 15.2734 5.38321 15.2796C5.38321 15.2796 5.38321 15.2671 5.37907 15.2609H5.38114ZM5.40602 18.2011C5.40602 18.2011 5.40809 18.2011 5.41017 18.2011C5.41017 18.2011 5.40878 18.2011 5.40602 18.2011ZM11.8172 22.0183H11.8151L11.8441 22.2174L11.8172 22.0183ZM5.91195 18.6966C5.94305 18.6842 5.97415 18.6738 6.00318 18.6655C5.97208 18.6738 5.94097 18.6863 5.91195 18.6966Z" fill="black"/>
<path d="M6.00391 18.6635L6.00598 18.6655C6.00598 18.6634 6.01013 18.6635 6.01427 18.6614C6.01013 18.6614 6.00805 18.6614 6.00391 18.6635V18.6635ZM11.7495 21.5601L11.8158 22.0183H11.8179L11.7495 21.5601Z" fill="black"/>
<path d="M18.6215 19.2024H18.6195C18.6215 19.2066 18.6215 19.2128 18.6236 19.217C18.6236 19.2128 18.6236 19.2087 18.6215 19.2045V19.2024ZM19.3825 14.9V14.9311C19.3846 14.9104 19.3867 14.8917 19.3867 14.871C19.3867 14.8813 19.3846 14.8917 19.3825 14.9ZM19.4074 14.2842C19.4074 14.2842 19.4178 14.2904 19.4219 14.2925C19.4468 14.3029 19.4717 14.3111 19.4945 14.3194C19.4654 14.307 19.4364 14.2966 19.4074 14.2842V14.2842ZM20.2948 14.8005H20.2928L20.2907 14.7984C20.2928 14.8005 20.2948 14.8026 20.2969 14.8067V14.8026H20.2948V14.8005ZM20.3073 14.815H20.3052V14.8088H20.3011C20.3011 14.8088 20.3073 14.8171 20.3093 14.8233V14.8191C20.3093 14.8191 20.3073 14.8191 20.3073 14.815ZM20.3156 14.8316C20.3156 14.8316 20.3135 14.8316 20.3135 14.8254H20.3093C20.3093 14.8254 20.3156 14.8316 20.3176 14.8378C20.3176 14.8357 20.3156 14.8337 20.3156 14.8316ZM19.5422 10.9335H19.5442C19.5442 10.9335 19.5484 10.9293 19.5484 10.9252C19.5484 10.9293 19.5442 10.9314 19.5422 10.9335ZM18.5801 10.498L18.9181 10.6059C18.8144 10.5685 18.7003 10.5333 18.5801 10.498ZM18.6381 10.78C18.6506 10.78 18.663 10.78 18.6775 10.7821C18.6817 10.78 18.6858 10.78 18.69 10.78H18.6381Z" fill="black"/>
<path d="M5.09915 11.2445C5.08671 11.2694 5.07634 11.2985 5.06805 11.3213C5.08049 11.2881 5.095 11.257 5.10951 11.2259C5.10329 11.23 5.10122 11.2383 5.09915 11.2445ZM5.11574 11.1492H5.11366C5.11366 11.1492 5.12196 11.1492 5.12818 11.1492H5.11574ZM5.38114 15.2608C5.38114 15.2608 5.38321 15.2733 5.38321 15.2795C5.38321 15.2795 5.38321 15.2671 5.37907 15.2608H5.38114ZM4.90424 14.4626L4.9001 14.4667C4.9312 14.4501 4.9623 14.4356 4.99547 14.4211C4.96437 14.4356 4.93327 14.448 4.90424 14.4626ZM4.43357 14.7985H4.43564H4.43357ZM4.43149 14.8005V14.8047L4.43357 14.8005H4.43149ZM4.42527 14.8109C4.42527 14.8109 4.42735 14.813 4.42735 14.8109H4.42527ZM4.41905 14.8171V14.8213C4.41905 14.8213 4.42113 14.8213 4.4232 14.8171H4.41905ZM4.4149 14.8275V14.8337C4.4149 14.8337 4.41698 14.8296 4.41698 14.8275H4.4149ZM4.41076 14.9125V14.9167C4.41076 14.9167 4.4149 14.9187 4.41698 14.9208C4.4149 14.9187 4.41283 14.9167 4.41076 14.9125V14.9125ZM4.41076 14.8337V14.8379C4.41076 14.8379 4.41076 14.8337 4.4149 14.8337H4.41076ZM4.40661 14.8441V14.8482C4.40661 14.8482 4.40868 14.8441 4.40868 14.842H4.40661V14.8441ZM4.40246 14.8607V14.8669C4.40246 14.8669 4.40454 14.8607 4.40454 14.8565C4.40454 14.8565 4.40385 14.8579 4.40246 14.8607ZM4.40039 14.8669C4.40039 14.8669 4.40039 14.869 4.40246 14.8669H4.40039ZM11.8172 22.0203L11.7487 21.5621L11.8151 22.0203L11.8441 22.2194L11.8172 22.0203ZM6.00318 18.6655C5.97208 18.6758 5.94097 18.6883 5.91195 18.6986C5.94305 18.6862 5.97415 18.6758 6.00318 18.6675H6.00525C6.00525 18.6675 6.0094 18.6655 6.01354 18.6634C6.0094 18.6634 6.00732 18.6634 6.00318 18.6655ZM5.40602 18.2031C5.40602 18.2031 5.40809 18.2031 5.41017 18.2031C5.41017 18.2031 5.40878 18.2031 5.40602 18.2031Z" fill="black"/>
<path d="M7.36345 11.6197C7.36345 11.6197 7.35356 11.6157 7.34961 11.6138C7.34961 11.6138 7.35752 11.6157 7.36345 11.6197Z" fill="black"/>
<path d="M9.57422 10.8921V15.4019C9.57422 16.449 10.4534 17.8216 11.9276 18.0414C12.0603 18.0621 12.1971 18.0725 12.3402 18.0725C12.5019 18.0725 12.6595 18.058 12.8088 18.0331C14.252 17.7884 15.1124 16.4365 15.1124 15.4019V10.8921H9.57422V10.8921ZM11.2599 14.5725C11.2599 15.0079 10.9095 15.2277 10.6462 15.2277C10.3829 15.2277 10.0304 15.0079 10.0304 14.5725V13.6933H11.2599V14.5725ZM12.956 16.6936C12.956 16.872 12.898 17.013 12.8088 17.1187C12.6823 17.2721 12.4957 17.3489 12.3402 17.3489C12.2054 17.3489 12.0499 17.2908 11.9276 17.1768C11.8115 17.0669 11.7265 16.9072 11.7265 16.6936V15.8166H12.956V16.6936ZM12.956 14.5725C12.956 14.7508 12.898 14.8939 12.8088 14.9996C12.6823 15.151 12.4957 15.2277 12.3402 15.2277C12.2054 15.2277 12.0499 15.1717 11.9276 15.0577C11.8115 14.9478 11.7265 14.7861 11.7265 14.5725V13.6933H12.956V14.5725ZM12.956 12.4513C12.956 12.6297 12.898 12.7727 12.8088 12.8785C12.6823 13.0298 12.4957 13.1065 12.3402 13.1065C12.2054 13.1065 12.0499 13.0506 11.9276 12.9365C11.8115 12.8266 11.7265 12.6649 11.7265 12.4513V11.5743H12.956V12.4513ZM14.6563 14.5725C14.6563 15.0079 14.3038 15.2277 14.0384 15.2277C13.773 15.2277 13.4267 15.0079 13.4267 14.5725V13.6933H14.6563V14.5725Z" fill="black"/>
<path d="M10.4673 14.672C10.4673 14.7466 10.4072 14.8109 10.3284 14.8109C10.2496 14.8109 10.1895 14.7466 10.1895 14.672C10.1895 14.5932 10.2517 14.531 10.3284 14.531C10.4051 14.531 10.4673 14.5932 10.4673 14.672Z" fill="black"/>
<path d="M10.4673 14.0419C10.4673 14.1186 10.4072 14.1808 10.3284 14.1808C10.2496 14.1808 10.1895 14.1186 10.1895 14.0419C10.1895 13.9652 10.2517 13.9009 10.3284 13.9009C10.4051 13.9009 10.4673 13.9631 10.4673 14.0419Z" fill="black"/>
<path d="M10.7858 14.355C10.7858 14.4338 10.7215 14.4918 10.6469 14.4918C10.5681 14.4918 10.5059 14.4338 10.5059 14.355C10.5059 14.2762 10.5681 14.2161 10.6469 14.2161C10.7215 14.2161 10.7858 14.2783 10.7858 14.355Z" fill="black"/>
<path d="M11.0983 14.672C11.0983 14.7466 11.0381 14.8109 10.9594 14.8109C10.8806 14.8109 10.8184 14.7466 10.8184 14.672C10.8184 14.5932 10.8826 14.531 10.9594 14.531C11.0361 14.531 11.0983 14.5932 11.0983 14.672Z" fill="black"/>
<path d="M10.8184 14.0419C10.8184 13.9631 10.8826 13.9009 10.9594 13.9009C11.0361 13.9009 11.0983 13.9631 11.0983 14.0419C11.0983 14.1207 11.0381 14.1808 10.9594 14.1808C10.8806 14.1808 10.8184 14.1186 10.8184 14.0419Z" fill="black"/>
<path d="M12.481 12.236C12.481 12.3127 12.4188 12.3749 12.34 12.3749C12.2653 12.3749 12.2031 12.3127 12.2031 12.236C12.2031 12.1592 12.2653 12.095 12.34 12.095C12.4188 12.095 12.481 12.1592 12.481 12.236Z" fill="black"/>
<path d="M12.7975 12.5488C12.7975 12.6256 12.7332 12.6898 12.6586 12.6898C12.5798 12.6898 12.5176 12.6256 12.5176 12.5488C12.5176 12.4721 12.5798 12.4099 12.6586 12.4099C12.7332 12.4099 12.7975 12.47 12.7975 12.5488Z" fill="black"/>
<path d="M12.7975 11.9207C12.7975 11.9974 12.7332 12.0617 12.6586 12.0617C12.5798 12.0617 12.5176 11.9974 12.5176 11.9207C12.5176 11.8439 12.5798 11.7776 12.6586 11.7776C12.7332 11.7776 12.7975 11.8419 12.7975 11.9207Z" fill="black"/>
<path d="M12.6572 16.0239C12.5784 16.0239 12.5162 16.0861 12.5162 16.1628C12.5162 16.2396 12.5784 16.3018 12.6572 16.3018C12.7319 16.3018 12.7961 16.2375 12.7961 16.1628C12.7961 16.0882 12.7319 16.0239 12.6572 16.0239ZM12.34 16.3391C12.2653 16.3391 12.2031 16.4013 12.2031 16.4801C12.2031 16.5547 12.2653 16.619 12.34 16.619C12.4188 16.619 12.481 16.5547 12.481 16.4801C12.481 16.4013 12.4188 16.3391 12.34 16.3391Z" fill="black"/>
<path d="M12.481 14.355C12.481 14.4338 12.4188 14.4918 12.34 14.4918C12.2653 14.4918 12.2031 14.4338 12.2031 14.355C12.2031 14.2762 12.2653 14.2161 12.34 14.2161C12.4188 14.2161 12.481 14.2783 12.481 14.355Z" fill="black"/>
<path d="M12.7975 14.672C12.7975 14.7466 12.7332 14.8109 12.6586 14.8109C12.5798 14.8109 12.5176 14.7466 12.5176 14.672C12.5176 14.5932 12.5798 14.531 12.6586 14.531C12.7332 14.531 12.7975 14.5932 12.7975 14.672Z" fill="black"/>
<path d="M12.5176 14.0419C12.5176 13.9631 12.5798 13.9009 12.6586 13.9009C12.7332 13.9009 12.7975 13.9631 12.7975 14.0419C12.7975 14.1207 12.7332 14.1808 12.6586 14.1808C12.5798 14.1808 12.5176 14.1186 12.5176 14.0419Z" fill="black"/>
<path d="M13.8618 14.672C13.8618 14.7466 13.8017 14.8109 13.7229 14.8109C13.6483 14.8109 13.584 14.7466 13.584 14.672C13.584 14.5932 13.6483 14.531 13.7229 14.531C13.8017 14.531 13.8618 14.5932 13.8618 14.672Z" fill="black"/>
<path d="M13.8618 14.0419C13.8618 14.1186 13.8017 14.1808 13.7229 14.1808C13.6483 14.1808 13.584 14.1186 13.584 14.0419C13.584 13.9652 13.6483 13.9009 13.7229 13.9009C13.8017 13.9009 13.8618 13.9631 13.8618 14.0419Z" fill="black"/>
<path d="M14.1803 14.355C14.1803 14.4338 14.1181 14.4918 14.0393 14.4918C13.9647 14.4918 13.9004 14.4338 13.9004 14.355C13.9004 14.2762 13.9647 14.2161 14.0393 14.2161C14.1181 14.2161 14.1803 14.2783 14.1803 14.355Z" fill="black"/>
<path d="M14.4927 14.672C14.4927 14.7466 14.4326 14.8109 14.3558 14.8109C14.2791 14.8109 14.2148 14.7466 14.2148 14.672C14.2148 14.5932 14.277 14.531 14.3558 14.531C14.4346 14.531 14.4927 14.5932 14.4927 14.672Z" fill="black"/>
<path d="M14.2148 14.0419C14.2148 13.9631 14.277 13.9009 14.3558 13.9009C14.4346 13.9009 14.4927 13.9631 14.4927 14.0419C14.4927 14.1207 14.4326 14.1808 14.3558 14.1808C14.2791 14.1808 14.2148 14.1186 14.2148 14.0419Z" fill="black"/>
<path fill-rule="evenodd" clip-rule="evenodd" d="M9.25818 10.4713H9.23951L9.1939 10.0462C9.25403 10.04 9.2955 9.99647 9.2955 9.94256C9.2955 9.88035 9.24573 9.83681 9.18768 9.83681H9.17524L9.1628 9.64398H9.21049C9.21049 9.64398 9.22915 9.63776 9.22915 9.62532V9.49054H9.16694V9.55897H9.08193V9.49054H9.00936V9.55897H8.92435V9.49054H8.86422V9.62324C8.86422 9.62324 8.87458 9.64398 8.88288 9.64398H8.93057L8.9202 9.83681H8.79994L8.77921 9.42834H8.81238C8.82482 9.42834 8.83104 9.42419 8.83104 9.40968V9.2749H8.76884V9.33711H8.68383V9.2749H8.61748V9.33711H8.53039V9.2749H8.47026V9.40968C8.47026 9.40968 8.47648 9.42627 8.48892 9.42834H8.52002L8.49929 9.83681H8.37903L8.36659 9.64398H8.41428C8.41428 9.64398 8.43501 9.63776 8.43501 9.62532V9.49054H8.37488V9.55897H8.28365V9.49054H8.21937V9.55897H8.12814V9.49054H8.06801V9.62324C8.06801 9.62324 8.07838 9.64398 8.09289 9.64398H8.13229L8.12399 9.83681H8.11362C8.05557 9.83681 8.0058 9.88035 8.0058 9.94256C8.0058 9.99647 8.04935 10.04 8.10326 10.0442L8.06386 10.4713H8.04313C7.98714 10.4713 7.93945 10.519 7.93945 10.575C7.93945 10.6309 7.98714 10.6786 8.04313 10.6786H9.25818C9.31623 10.6786 9.366 10.6309 9.366 10.575C9.366 10.519 9.31623 10.4713 9.25818 10.4713V10.4713ZM8.36451 10.4713C8.37695 10.1147 8.65065 10.0317 8.65272 10.0317C8.6548 10.0317 8.72115 10.0525 8.79165 10.1188C8.86007 10.1831 8.93057 10.293 8.93679 10.4713H8.36451V10.4713Z" fill="black"/>
<path fill-rule="evenodd" clip-rule="evenodd" d="M12.9672 10.4713H12.9402L12.9029 10.0462C12.9609 10.04 13.0003 9.99647 13.0003 9.94256C13.0003 9.88035 12.9506 9.83681 12.8946 9.83681H12.8801L12.8676 9.64398H12.9174C12.9174 9.64398 12.934 9.63776 12.934 9.62532V9.49054H12.8759V9.55897H12.7826V9.49054H12.7204V9.55897H12.6292V9.49054H12.5691V9.62324C12.5691 9.62324 12.5836 9.64398 12.5898 9.64398H12.6375L12.623 9.83681H12.5069L12.4861 9.42834H12.5151C12.5276 9.42834 12.54 9.42419 12.54 9.40968V9.2749H12.4778V9.33711H12.3887V9.2749H12.3244V9.33711H12.2352V9.2749H12.173V9.40968C12.173 9.40968 12.1834 9.42627 12.1958 9.42834H12.229L12.2083 9.83681H12.088L12.0735 9.64398H12.117C12.117 9.64398 12.1419 9.63776 12.1419 9.62532V9.49054H12.0756V9.55897H11.9885V9.49054H11.9284V9.55897H11.835V9.49054H11.777V9.62324C11.777 9.62324 11.7874 9.64398 11.7957 9.64398H11.8433L11.8309 9.83681H11.8205C11.7625 9.83681 11.7127 9.88035 11.7127 9.94256C11.7127 9.99647 11.7563 10.04 11.8102 10.0442L11.7666 10.4713H11.7521C11.692 10.4713 11.6484 10.519 11.6484 10.575C11.6484 10.6309 11.692 10.6786 11.7521 10.6786H12.9672C13.0231 10.6786 13.0708 10.6309 13.0708 10.575C13.0708 10.519 13.0231 10.4713 12.9672 10.4713V10.4713ZM12.0694 10.4713C12.0839 10.1147 12.3534 10.0317 12.3576 10.0317C12.3576 10.0317 12.426 10.0525 12.4965 10.1188C12.5649 10.1831 12.6375 10.293 12.6458 10.4713H12.0694V10.4713Z" fill="black"/>
<path fill-rule="evenodd" clip-rule="evenodd" d="M16.6392 10.4713H16.6184L16.5749 10.0462C16.6309 10.04 16.6723 9.99647 16.6723 9.94256C16.6723 9.88035 16.6226 9.83681 16.5645 9.83681H16.5521L16.5438 9.64398H16.5873C16.5873 9.64398 16.606 9.63776 16.606 9.62532V9.49054H16.5458V9.55897H16.4546V9.49054H16.3903V9.55897H16.3012V9.49054H16.241V9.62324C16.241 9.62324 16.2514 9.64398 16.2639 9.64398H16.3074L16.297 9.83681H16.183L16.156 9.42834H16.1892C16.2017 9.42834 16.212 9.42419 16.212 9.40968V9.2749H16.1519V9.33711H16.0607V9.2749H15.9985V9.33711H15.9072V9.2749H15.845V9.40968C15.845 9.40968 15.8554 9.42627 15.8678 9.42834H15.901L15.8782 9.83681H15.7559L15.7496 9.64398H15.7932C15.7932 9.64398 15.8139 9.63776 15.8139 9.62532V9.49054H15.7496V9.55897H15.6605V9.49054H15.5983V9.55897H15.5091V9.49054H15.4469V9.62324C15.4469 9.62324 15.4573 9.64398 15.4676 9.64398H15.5133L15.5008 9.83681H15.4905C15.4324 9.83681 15.3847 9.88035 15.3847 9.94256C15.3847 9.99647 15.4262 10.04 15.4801 10.0442L15.4428 10.4713H15.42C15.364 10.4713 15.3184 10.519 15.3184 10.575C15.3184 10.6309 15.364 10.6786 15.42 10.6786H16.6392C16.6993 10.6786 16.7428 10.6309 16.7428 10.575C16.7428 10.519 16.6993 10.4713 16.6392 10.4713V10.4713ZM15.7413 10.4713C15.7538 10.1147 16.0275 10.0317 16.0275 10.0317H16.0316C16.0316 10.0317 16.3012 10.1147 16.3198 10.4713H15.7413V10.4713Z" fill="black"/>
<path fill-rule="evenodd" clip-rule="evenodd" d="M9.25818 14.2926H9.23951L9.1939 13.8654C9.25403 13.8634 9.2955 13.8198 9.2955 13.7638C9.2955 13.7037 9.24573 13.656 9.18768 13.656H9.17524L9.1628 13.4694H9.21049C9.21049 13.4694 9.22915 13.4611 9.22915 13.4466V13.3139H9.16694V13.3803H9.08193V13.3139H9.00936V13.3803H8.92435V13.3139H8.86422V13.4466C8.86422 13.4466 8.87458 13.4694 8.88288 13.4694H8.93057L8.9202 13.656H8.79994L8.77921 13.2496H8.81238C8.82482 13.2496 8.83104 13.2434 8.83104 13.231V13.0962H8.76884V13.1625H8.68383V13.0962H8.61748V13.1625H8.53039V13.0962H8.47026V13.2268C8.47026 13.2372 8.47648 13.2476 8.48892 13.2496H8.52002L8.49929 13.656H8.37903L8.36659 13.4694H8.41428C8.41428 13.4694 8.43501 13.4611 8.43501 13.4466V13.3139H8.37488V13.3803H8.28365V13.3139H8.21937V13.3803H8.12814V13.3139H8.06801V13.4466C8.06801 13.4466 8.07838 13.4694 8.09289 13.4694H8.13229L8.12399 13.656H8.11362C8.05557 13.656 8.0058 13.7037 8.0058 13.7638C8.0058 13.8178 8.04935 13.8592 8.10326 13.8654L8.06386 14.2926H8.04313C7.98714 14.2926 7.93945 14.3361 7.93945 14.3963C7.93945 14.4522 7.98714 14.4937 8.04313 14.4937H9.25818C9.31623 14.4937 9.366 14.4522 9.366 14.3963C9.366 14.3361 9.31623 14.2926 9.25818 14.2926V14.2926ZM8.36451 14.2926C8.37695 13.9359 8.65065 13.853 8.65272 13.853C8.6548 13.853 8.72115 13.8737 8.79165 13.938C8.86007 14.0044 8.93057 14.1143 8.93679 14.2926H8.36451V14.2926Z" fill="black"/>
<path fill-rule="evenodd" clip-rule="evenodd" d="M16.6392 14.2926H16.6184L16.5749 13.8654C16.6309 13.8634 16.6723 13.8198 16.6723 13.7638C16.6723 13.7037 16.6226 13.656 16.5645 13.656H16.5521L16.5438 13.4694H16.5873C16.5873 13.4694 16.606 13.4611 16.606 13.4466V13.3139H16.5458V13.3803H16.4546V13.3139H16.3903V13.3803H16.3012V13.3139H16.241V13.4466C16.241 13.4466 16.2514 13.4694 16.2639 13.4694H16.3074L16.297 13.656H16.183L16.156 13.2496H16.1892C16.2017 13.2496 16.212 13.2434 16.212 13.231V13.0962H16.1519V13.1625H16.0607V13.0962H15.9985V13.1625H15.9072V13.0962H15.845V13.2268C15.845 13.2372 15.8554 13.2476 15.8678 13.2496H15.901L15.8782 13.656H15.7559L15.7496 13.4694H15.7932C15.7932 13.4694 15.8139 13.4611 15.8139 13.4466V13.3139H15.7496V13.3803H15.6605V13.3139H15.5983V13.3803H15.5091V13.3139H15.4469V13.4466C15.4469 13.4466 15.4573 13.4694 15.4676 13.4694H15.5133L15.5008 13.656H15.4905C15.4324 13.656 15.3847 13.7037 15.3847 13.7638C15.3847 13.8178 15.4262 13.8592 15.4801 13.8654L15.4428 14.2926H15.42C15.364 14.2926 15.3184 14.3361 15.3184 14.3963C15.3184 14.4522 15.364 14.4937 15.42 14.4937H16.6392C16.6993 14.4937 16.7428 14.4522 16.7428 14.3963C16.7428 14.3361 16.6993 14.2926 16.6392 14.2926V14.2926ZM15.7413 14.2926C15.7538 13.9359 16.0275 13.853 16.0275 13.853H16.0316C16.0316 13.853 16.3012 13.9359 16.3198 14.2926H15.7413V14.2926Z" fill="black"/>
<path fill-rule="evenodd" clip-rule="evenodd" d="M10.4903 17.6288C10.4447 17.5832 10.3763 17.5832 10.3369 17.6247L10.3244 17.6413L9.99681 17.3717C10.0321 17.3261 10.0321 17.2681 9.99059 17.2266C9.94912 17.1872 9.87655 17.1872 9.83923 17.2266L9.82886 17.239L9.68994 17.1146L9.69823 17.1084L9.72104 17.0814C9.72104 17.0814 9.73141 17.0649 9.72104 17.0524L9.62981 16.957L9.58626 16.9985L9.63188 17.0524L9.5676 17.1146L9.52199 17.0649L9.4743 17.1084L9.52199 17.1561L9.45563 17.2204L9.41417 17.1727L9.36855 17.2183L9.45978 17.3095C9.45978 17.3095 9.48259 17.3178 9.49296 17.3095L9.51369 17.2888L9.52406 17.2763L9.64847 17.4153L9.56553 17.4941L9.25866 17.2266L9.28768 17.2079C9.28768 17.2079 9.29805 17.183 9.28768 17.1768L9.19438 17.0814L9.14669 17.125L9.19438 17.1727L9.13217 17.2349L9.08656 17.1872L9.03887 17.2349L9.08656 17.2784L9.02228 17.3468L8.97666 17.2971L8.93105 17.3406L9.02435 17.4339C9.02435 17.4339 9.04716 17.4422 9.05753 17.4339L9.08241 17.409L9.35196 17.7138L9.26902 17.7989L9.12595 17.6786L9.13217 17.6682L9.15706 17.6454C9.15706 17.6454 9.16742 17.6247 9.15913 17.6143L9.06168 17.5189L9.02021 17.5625L9.0679 17.6081L9.00569 17.6744L8.96008 17.6247L8.91031 17.6724L8.96008 17.7201L8.89787 17.7802L8.85018 17.7367L8.80664 17.7781L8.89787 17.8735C8.89787 17.8735 8.92068 17.8797 8.93105 17.8735L8.95386 17.8465L8.96215 17.8403L9.08656 17.9772L9.08241 17.9875C9.0368 18.0311 9.0368 18.0995 9.08241 18.1348C9.11973 18.1742 9.18194 18.1742 9.22548 18.1451L9.49296 18.4707L9.47844 18.4893C9.43697 18.5246 9.43697 18.593 9.47844 18.6345C9.52199 18.6759 9.58834 18.6759 9.62981 18.6345L10.4903 17.7761C10.5276 17.7346 10.5276 17.6682 10.4903 17.6288V17.6288ZM9.70445 18.2612C9.46393 18 9.60078 17.7512 9.60078 17.7491C9.60285 17.7491 9.67542 17.7097 9.78324 17.7097C9.87447 17.7097 9.99266 17.7387 10.115 17.8528L9.70445 18.2612V18.2612Z" fill="black"/>
<path fill-rule="evenodd" clip-rule="evenodd" d="M15.8947 17.7367L15.847 17.7802L15.7848 17.7201L15.8283 17.6724L15.7848 17.6247L15.7392 17.6744L15.6749 17.6081L15.7226 17.5625L15.6811 17.5189L15.5857 17.6143C15.5857 17.6143 15.5774 17.6371 15.5857 17.6454L15.6106 17.6682L15.6168 17.6786L15.4737 17.7989L15.3929 17.7138L15.6624 17.409L15.6873 17.4339C15.6977 17.4422 15.7122 17.4422 15.7163 17.4339L15.8097 17.3406L15.7682 17.2971L15.7226 17.3468L15.6583 17.2784L15.7039 17.2349L15.6583 17.1872L15.6147 17.2349L15.5463 17.1727L15.594 17.125L15.5505 17.0814L15.4572 17.1768C15.4572 17.1768 15.4509 17.1976 15.4592 17.2079L15.482 17.2266L15.1772 17.4941L15.0964 17.4153L15.2208 17.2763L15.227 17.2888L15.2498 17.3095C15.2498 17.3095 15.2768 17.3178 15.2788 17.3095L15.3763 17.2183L15.3307 17.1727L15.283 17.2204L15.2229 17.1561L15.2685 17.1084L15.2229 17.0649L15.1772 17.1146L15.113 17.0524L15.1607 16.9985L15.115 16.957L15.0217 17.0524C15.0114 17.0649 15.0155 17.0752 15.0217 17.0814L15.0445 17.1084L15.0549 17.1146L14.9181 17.239L14.9056 17.2266C14.8642 17.1872 14.7957 17.1872 14.7543 17.2266C14.7128 17.2681 14.7128 17.3261 14.748 17.3717L14.4184 17.6413L14.4059 17.6247C14.3644 17.5832 14.3002 17.5832 14.2546 17.6288C14.2172 17.6682 14.2172 17.7346 14.2546 17.7761L15.115 18.6345C15.1544 18.6759 15.2229 18.6759 15.2664 18.6345C15.3058 18.593 15.3058 18.5246 15.2664 18.4893L15.2498 18.4707L15.5214 18.1451C15.5629 18.1742 15.6272 18.1742 15.6624 18.1348C15.7081 18.0995 15.7081 18.0311 15.6624 17.9875L15.6583 17.9772L15.7806 17.8403L15.791 17.8465L15.8138 17.8735C15.8138 17.8735 15.8387 17.8776 15.8449 17.8735L15.9382 17.7781L15.8947 17.7367V17.7367ZM15.0383 18.2612L14.6299 17.8528C14.8932 17.6081 15.1399 17.7491 15.142 17.7491C15.142 17.7491 15.1814 17.8196 15.1814 17.9253C15.1814 18.0186 15.1503 18.1389 15.0383 18.2612Z" fill="black"/>
<path d="M12.479 12.2357C12.479 12.3124 12.4168 12.3746 12.338 12.3746C12.2634 12.3746 12.2012 12.3124 12.2012 12.2357C12.2012 12.159 12.2634 12.0947 12.338 12.0947C12.4168 12.0947 12.479 12.159 12.479 12.2357Z" fill="black"/>
<path d="M12.7955 12.5486C12.7955 12.6253 12.7313 12.6896 12.6566 12.6896C12.5778 12.6896 12.5156 12.6253 12.5156 12.5486C12.5156 12.4719 12.5778 12.4097 12.6566 12.4097C12.7313 12.4097 12.7955 12.4698 12.7955 12.5486Z" fill="black"/>
<path d="M12.7955 11.9202C12.7955 11.9969 12.7313 12.0612 12.6566 12.0612C12.5778 12.0612 12.5156 11.9969 12.5156 11.9202C12.5156 11.8435 12.5778 11.7771 12.6566 11.7771C12.7313 11.7771 12.7955 11.8414 12.7955 11.9202Z" fill="black"/>
<path fill-rule="evenodd" clip-rule="evenodd" d="M12.479 12.2355C12.479 12.3122 12.4168 12.3744 12.338 12.3744C12.2634 12.3744 12.2012 12.3122 12.2012 12.2355C12.2012 12.1588 12.2634 12.0945 12.338 12.0945C12.4168 12.0945 12.479 12.1588 12.479 12.2355Z" fill="black"/>
<path fill-rule="evenodd" clip-rule="evenodd" d="M12.7955 12.5483C12.7955 12.6251 12.7313 12.6893 12.6566 12.6893C12.5778 12.6893 12.5156 12.6251 12.5156 12.5483C12.5156 12.4716 12.5778 12.4094 12.6566 12.4094C12.7313 12.4094 12.7955 12.4696 12.7955 12.5483Z" fill="black"/>
<path fill-rule="evenodd" clip-rule="evenodd" d="M12.7955 11.9202C12.7955 11.9969 12.7313 12.0612 12.6566 12.0612C12.5778 12.0612 12.5156 11.9969 12.5156 11.9202C12.5156 11.8435 12.5778 11.7771 12.6566 11.7771C12.7313 11.7771 12.7955 11.8414 12.7955 11.9202Z" fill="black"/>
<path fill-rule="evenodd" clip-rule="evenodd" d="M12.1666 12.5483C12.1666 12.6251 12.1003 12.6893 12.0256 12.6893C11.9862 12.6893 11.951 12.6728 11.9261 12.6458C11.9012 12.6209 11.8867 12.5857 11.8867 12.5483C11.8867 12.509 11.9012 12.4758 11.9261 12.4509C11.951 12.426 11.9862 12.4094 12.0256 12.4094C12.1003 12.4094 12.1666 12.4696 12.1666 12.5483Z" fill="black"/>
<path d="M12.479 14.3545C12.479 14.4333 12.4168 14.4913 12.338 14.4913C12.2634 14.4913 12.2012 14.4333 12.2012 14.3545C12.2012 14.2757 12.2634 14.2156 12.338 14.2156C12.4168 14.2156 12.479 14.2778 12.479 14.3545Z" fill="black"/>
<path d="M12.7955 14.672C12.7955 14.7466 12.7313 14.8109 12.6566 14.8109C12.5778 14.8109 12.5156 14.7466 12.5156 14.672C12.5156 14.5932 12.5778 14.531 12.6566 14.531C12.7313 14.531 12.7955 14.5932 12.7955 14.672Z" fill="black"/>
<path d="M12.5156 14.0416C12.5156 13.9628 12.5778 13.9006 12.6566 13.9006C12.7313 13.9006 12.7955 13.9628 12.7955 14.0416C12.7955 14.1204 12.7313 14.1806 12.6566 14.1806C12.5778 14.1806 12.5156 14.1183 12.5156 14.0416Z" fill="black"/>
<path fill-rule="evenodd" clip-rule="evenodd" d="M12.1666 14.0416C12.1666 14.1183 12.1003 14.1806 12.0256 14.1806C11.9862 14.1806 11.951 14.164 11.9261 14.137C11.9012 14.1121 11.8867 14.079 11.8867 14.0416C11.8867 14.0022 11.9012 13.9691 11.9261 13.9442C11.951 13.9172 11.9862 13.9006 12.0256 13.9006C12.1003 13.9006 12.1666 13.9628 12.1666 14.0416V14.0416Z" fill="black"/>
<path fill-rule="evenodd" clip-rule="evenodd" d="M12.479 14.3545C12.479 14.4333 12.4168 14.4913 12.338 14.4913C12.2634 14.4913 12.2012 14.4333 12.2012 14.3545C12.2012 14.2757 12.2634 14.2156 12.338 14.2156C12.4168 14.2156 12.479 14.2778 12.479 14.3545Z" fill="black"/>
<path fill-rule="evenodd" clip-rule="evenodd" d="M12.7955 14.672C12.7955 14.7466 12.7313 14.8109 12.6566 14.8109C12.5778 14.8109 12.5156 14.7466 12.5156 14.672C12.5156 14.5932 12.5778 14.531 12.6566 14.531C12.7313 14.531 12.7955 14.5932 12.7955 14.672Z" fill="black"/>
<path fill-rule="evenodd" clip-rule="evenodd" d="M12.7955 14.0416C12.7955 14.1183 12.7313 14.1806 12.6566 14.1806C12.5778 14.1806 12.5156 14.1183 12.5156 14.0416C12.5156 13.9649 12.5778 13.9006 12.6566 13.9006C12.7313 13.9006 12.7955 13.9628 12.7955 14.0416Z" fill="black"/>
<path fill-rule="evenodd" clip-rule="evenodd" d="M12.1666 14.672C12.1666 14.7466 12.1003 14.8109 12.0256 14.8109C11.9862 14.8109 11.951 14.7943 11.9261 14.7674C11.9012 14.7425 11.8867 14.7093 11.8867 14.672C11.8867 14.6326 11.9012 14.5994 11.9261 14.5745C11.951 14.5476 11.9862 14.531 12.0256 14.531C12.1003 14.531 12.1666 14.5932 12.1666 14.672V14.672Z" fill="black"/>
<path d="M10.4693 14.6715C10.4693 14.7462 10.4091 14.8104 10.3303 14.8104C10.2515 14.8104 10.1914 14.7462 10.1914 14.6715C10.1914 14.5927 10.2536 14.5305 10.3303 14.5305C10.407 14.5305 10.4693 14.5927 10.4693 14.6715Z" fill="black"/>
<path d="M10.4693 14.0414C10.4693 14.1181 10.4091 14.1803 10.3303 14.1803C10.2515 14.1803 10.1914 14.1181 10.1914 14.0414C10.1914 13.9647 10.2536 13.9004 10.3303 13.9004C10.407 13.9004 10.4693 13.9626 10.4693 14.0414Z" fill="black"/>
<path d="M10.7858 14.3545C10.7858 14.4333 10.7215 14.4913 10.6469 14.4913C10.5681 14.4913 10.5059 14.4333 10.5059 14.3545C10.5059 14.2757 10.5681 14.2156 10.6469 14.2156C10.7215 14.2156 10.7858 14.2778 10.7858 14.3545Z" fill="black"/>
<path d="M11.1002 14.6715C11.1002 14.7462 11.0401 14.8104 10.9613 14.8104C10.8825 14.8104 10.8203 14.7462 10.8203 14.6715C10.8203 14.5927 10.8846 14.5305 10.9613 14.5305C11.038 14.5305 11.1002 14.5927 11.1002 14.6715Z" fill="black"/>
<path d="M10.8203 14.0414C10.8203 13.9626 10.8846 13.9004 10.9613 13.9004C11.038 13.9004 11.1002 13.9626 11.1002 14.0414C11.1002 14.1202 11.0401 14.1803 10.9613 14.1803C10.8825 14.1803 10.8203 14.1181 10.8203 14.0414Z" fill="black"/>
<path fill-rule="evenodd" clip-rule="evenodd" d="M10.4693 14.0414C10.4693 14.1181 10.4091 14.1803 10.3303 14.1803C10.2515 14.1803 10.1914 14.1181 10.1914 14.0414C10.1914 13.9647 10.2536 13.9004 10.3303 13.9004C10.407 13.9004 10.4693 13.9626 10.4693 14.0414Z" fill="black"/>
<path fill-rule="evenodd" clip-rule="evenodd" d="M10.7858 14.3545C10.7858 14.4333 10.7215 14.4913 10.6469 14.4913C10.5681 14.4913 10.5059 14.4333 10.5059 14.3545C10.5059 14.2757 10.5681 14.2156 10.6469 14.2156C10.7215 14.2156 10.7858 14.2778 10.7858 14.3545Z" fill="black"/>
<path fill-rule="evenodd" clip-rule="evenodd" d="M11.1002 14.6715C11.1002 14.7462 11.0401 14.8104 10.9613 14.8104C10.8825 14.8104 10.8203 14.7462 10.8203 14.6715C10.8203 14.5927 10.8846 14.5305 10.9613 14.5305C11.038 14.5305 11.1002 14.5927 11.1002 14.6715Z" fill="black"/>
<path fill-rule="evenodd" clip-rule="evenodd" d="M11.1002 14.0414C11.1002 14.1181 11.0401 14.1803 10.9613 14.1803C10.8825 14.1803 10.8203 14.1181 10.8203 14.0414C10.8203 13.9647 10.8846 13.9004 10.9613 13.9004C11.038 13.9004 11.1002 13.9626 11.1002 14.0414Z" fill="black"/>
<path fill-rule="evenodd" clip-rule="evenodd" d="M10.4693 14.6715C10.4693 14.7462 10.4091 14.8104 10.3303 14.8104C10.2515 14.8104 10.1914 14.7462 10.1914 14.6715C10.1914 14.5927 10.2536 14.5305 10.3303 14.5305C10.407 14.5305 10.4693 14.5927 10.4693 14.6715Z" fill="black"/>
<path d="M13.8638 14.6718C13.8638 14.7464 13.8037 14.8107 13.7249 14.8107C13.6502 14.8107 13.5859 14.7464 13.5859 14.6718C13.5859 14.593 13.6502 14.5308 13.7249 14.5308C13.8037 14.5308 13.8638 14.593 13.8638 14.6718Z" fill="black"/>
<path d="M13.8638 14.0414C13.8638 14.1181 13.8037 14.1803 13.7249 14.1803C13.6502 14.1803 13.5859 14.1181 13.5859 14.0414C13.5859 13.9647 13.6502 13.9004 13.7249 13.9004C13.8037 13.9004 13.8638 13.9626 13.8638 14.0414Z" fill="black"/>
<path d="M14.1803 14.3545C14.1803 14.4333 14.1181 14.4913 14.0393 14.4913C13.9647 14.4913 13.9004 14.4333 13.9004 14.3545C13.9004 14.2757 13.9647 14.2156 14.0393 14.2156C14.1181 14.2156 14.1803 14.2778 14.1803 14.3545Z" fill="black"/>
<path d="M14.4946 14.6718C14.4946 14.7464 14.4345 14.8107 14.3578 14.8107C14.2811 14.8107 14.2168 14.7464 14.2168 14.6718C14.2168 14.593 14.279 14.5308 14.3578 14.5308C14.4366 14.5308 14.4946 14.593 14.4946 14.6718Z" fill="black"/>
<path d="M14.2168 14.0414C14.2168 13.9626 14.279 13.9004 14.3578 13.9004C14.4366 13.9004 14.4946 13.9626 14.4946 14.0414C14.4946 14.1202 14.4345 14.1803 14.3578 14.1803C14.2811 14.1803 14.2168 14.1181 14.2168 14.0414Z" fill="black"/>
<path fill-rule="evenodd" clip-rule="evenodd" d="M13.8638 14.0414C13.8638 14.1181 13.8037 14.1803 13.7249 14.1803C13.6502 14.1803 13.5859 14.1181 13.5859 14.0414C13.5859 13.9647 13.6502 13.9004 13.7249 13.9004C13.8037 13.9004 13.8638 13.9626 13.8638 14.0414Z" fill="black"/>
<path fill-rule="evenodd" clip-rule="evenodd" d="M14.1803 14.3545C14.1803 14.4333 14.1181 14.4913 14.0393 14.4913C13.9647 14.4913 13.9004 14.4333 13.9004 14.3545C13.9004 14.2757 13.9647 14.2156 14.0393 14.2156C14.1181 14.2156 14.1803 14.2778 14.1803 14.3545Z" fill="black"/>
<path fill-rule="evenodd" clip-rule="evenodd" d="M14.4946 14.6718C14.4946 14.7464 14.4345 14.8107 14.3578 14.8107C14.2811 14.8107 14.2168 14.7464 14.2168 14.6718C14.2168 14.593 14.279 14.5308 14.3578 14.5308C14.4366 14.5308 14.4946 14.593 14.4946 14.6718Z" fill="black"/>
<path fill-rule="evenodd" clip-rule="evenodd" d="M14.4946 14.0414C14.4946 14.1181 14.4345 14.1803 14.3578 14.1803C14.2811 14.1803 14.2168 14.1181 14.2168 14.0414C14.2168 13.9647 14.279 13.9004 14.3578 13.9004C14.4366 13.9004 14.4946 13.9626 14.4946 14.0414Z" fill="black"/>
<path fill-rule="evenodd" clip-rule="evenodd" d="M13.8638 14.6718C13.8638 14.7464 13.8037 14.8107 13.7249 14.8107C13.6502 14.8107 13.5859 14.7464 13.5859 14.6718C13.5859 14.593 13.6502 14.5308 13.7249 14.5308C13.8037 14.5308 13.8638 14.593 13.8638 14.6718Z" fill="black"/>
<path d="M12.6553 16.0234C12.5765 16.0234 12.5143 16.0856 12.5143 16.1624C12.5143 16.2391 12.5765 16.3013 12.6553 16.3013C12.7299 16.3013 12.7942 16.237 12.7942 16.1624C12.7942 16.0877 12.7299 16.0234 12.6553 16.0234ZM12.338 16.3386C12.2634 16.3386 12.2012 16.4008 12.2012 16.4796C12.2012 16.5542 12.2634 16.6185 12.338 16.6185C12.4168 16.6185 12.479 16.5542 12.479 16.4796C12.479 16.4008 12.4168 16.3386 12.338 16.3386Z" fill="black"/>
<path fill-rule="evenodd" clip-rule="evenodd" d="M12.1666 16.1624C12.1666 16.237 12.1003 16.3013 12.0256 16.3013C11.9862 16.3013 11.951 16.2847 11.9261 16.2577C11.9012 16.2329 11.8867 16.1997 11.8867 16.1624C11.8867 16.125 11.9012 16.0919 11.9261 16.067C11.951 16.04 11.9862 16.0234 12.0256 16.0234C12.1003 16.0234 12.1666 16.0856 12.1666 16.1624V16.1624Z" fill="black"/>
<path fill-rule="evenodd" clip-rule="evenodd" d="M12.479 16.4796C12.479 16.5543 12.4168 16.6185 12.338 16.6185C12.2634 16.6185 12.2012 16.5543 12.2012 16.4796C12.2012 16.4008 12.2634 16.3386 12.338 16.3386C12.4168 16.3386 12.479 16.4008 12.479 16.4796Z" fill="black"/>
<path fill-rule="evenodd" clip-rule="evenodd" d="M12.7955 16.7908C12.7955 16.8302 12.779 16.8654 12.7541 16.8903C12.752 16.8924 12.7499 16.8965 12.7458 16.8965C12.7209 16.9193 12.6898 16.9318 12.6566 16.9318C12.5778 16.9318 12.5156 16.8696 12.5156 16.7908C12.5156 16.712 12.5778 16.6519 12.6566 16.6519C12.7022 16.6519 12.7416 16.6726 12.7665 16.7078C12.7707 16.7099 12.7727 16.7141 12.7727 16.7161C12.7769 16.7224 12.781 16.7286 12.7852 16.7369C12.7914 16.7535 12.7955 16.77 12.7955 16.7908Z" fill="black"/>
<path fill-rule="evenodd" clip-rule="evenodd" d="M12.7955 16.1624C12.7955 16.237 12.7313 16.3013 12.6566 16.3013C12.5778 16.3013 12.5156 16.237 12.5156 16.1624C12.5156 16.0877 12.5778 16.0234 12.6566 16.0234C12.7313 16.0234 12.7955 16.0856 12.7955 16.1624Z" fill="black"/>
<path fill-rule="evenodd" clip-rule="evenodd" d="M12.1666 16.7908C12.1666 16.8696 12.1003 16.9318 12.0256 16.9318C11.9862 16.9318 11.951 16.9152 11.9261 16.8882C11.9012 16.8633 11.8867 16.8302 11.8867 16.7908C11.8867 16.7514 11.9012 16.7182 11.9261 16.6933C11.951 16.6684 11.9862 16.6519 12.0256 16.6519C12.1003 16.6519 12.1666 16.712 12.1666 16.7908V16.7908Z" fill="black"/>
<path d="M44.435 14.8915L41.4222 10.0582H41.1423V13.5831C41.5508 13.6163 41.9302 13.6827 42.2848 13.7822V14.8915H37.916V13.7988C38.1358 13.7428 38.368 13.6992 38.6106 13.6661C38.8532 13.6329 39.102 13.6059 39.355 13.5831V5.02803C39.102 5.00522 38.8532 4.97826 38.6106 4.94509C38.368 4.91191 38.1358 4.86837 37.916 4.81239V3.71967H39.2078C39.3177 3.71967 39.4773 3.7176 39.6868 3.71138C39.8962 3.70516 40.1429 3.69686 40.4228 3.6865C40.7048 3.67613 41.0076 3.66783 41.3331 3.66161C41.6586 3.65539 41.9924 3.65332 42.3346 3.65332C42.9089 3.65332 43.4356 3.7093 43.9145 3.8192C44.3935 3.92909 44.8082 4.10326 45.1565 4.33964C45.5049 4.57601 45.7724 4.8891 45.959 5.27477C46.1456 5.66043 46.241 6.12903 46.241 6.68058C46.241 7.09942 46.1684 7.48301 46.0253 7.83135C45.8823 8.17969 45.677 8.48241 45.4137 8.7416C45.1483 9.00078 44.8372 9.21642 44.4785 9.38644C44.1198 9.55854 43.7259 9.67673 43.2946 9.74308C43.4148 9.88615 43.5289 10.0375 43.6367 10.1972C43.7445 10.3568 43.8482 10.5144 43.9456 10.6699L45.876 13.5665C46.0523 13.5894 46.241 13.6163 46.4379 13.6495C46.637 13.6827 46.8464 13.7221 47.0662 13.7656V14.8915H44.435V14.8915ZM43.7756 5.54017C43.4024 5.2644 42.8363 5.12548 42.0795 5.12548C41.9033 5.12548 41.7374 5.12755 41.5778 5.13377C41.4181 5.13999 41.273 5.14829 41.1423 5.15865V8.70013C41.2294 8.7105 41.3476 8.71879 41.4969 8.72501C41.6441 8.73123 41.8183 8.7333 42.0153 8.7333C42.7389 8.7333 43.307 8.56535 43.7196 8.22945C44.1323 7.89355 44.3375 7.44361 44.3375 6.87963C44.3375 6.26174 44.1509 5.81387 43.7777 5.5381L43.7756 5.54017Z" fill="black"/>
<path d="M47.8281 14.8914V13.7966C48.0479 13.7407 48.2801 13.6971 48.5227 13.6639C48.7653 13.6308 49.0141 13.6038 49.2671 13.581V5.01137C49.0141 4.99064 48.7653 4.96161 48.5227 4.93051C48.2801 4.89733 48.0479 4.85379 47.8281 4.79988V3.72168H55.2262V6.38608H53.9179C53.8743 6.15385 53.8349 5.92992 53.8018 5.71635C53.7686 5.50278 53.7416 5.30581 53.7188 5.12956H51.0544V8.48857H53.1901C53.2129 8.30196 53.2399 8.12157 53.273 7.95154C53.3062 7.78152 53.3498 7.61772 53.4057 7.46428H54.5316V10.8399H53.4057C53.3498 10.6864 53.3062 10.5164 53.273 10.336C53.2399 10.1536 53.2129 9.97939 53.1901 9.81559H51.0544V13.44H53.7354C53.7582 13.2409 53.7852 13.0315 53.8184 12.8117C53.8515 12.592 53.8951 12.3597 53.9511 12.1171H55.2594V14.8976H47.8281V14.8914Z" fill="black"/>
<path d="M64.737 8.51974C64.5338 8.98212 64.2415 9.3823 63.8599 9.72027C63.4784 10.0562 63.0223 10.3216 62.4852 10.5144C61.9503 10.7072 61.3573 10.8047 60.7062 10.8047H60.3081C60.165 10.8047 60.0199 10.7943 59.8768 10.7715V13.5852C60.1298 13.608 60.3786 13.635 60.6212 13.6681C60.8638 13.7013 61.096 13.7449 61.3158 13.8008V14.8936H56.6484V13.8008C56.8682 13.7449 57.1004 13.7013 57.343 13.6681C57.5856 13.635 57.8345 13.608 58.0874 13.5852V5.02803C57.8345 5.00522 57.5856 4.97826 57.343 4.94509C57.1004 4.91191 56.8682 4.86837 56.6484 4.81239V3.71967H57.907C58.0397 3.71967 58.218 3.7176 58.4441 3.71138C58.6701 3.70516 58.9209 3.69686 59.1967 3.6865C59.4725 3.67613 59.7586 3.66783 60.0572 3.66161C60.3558 3.65539 60.6481 3.65332 60.9343 3.65332C62.2696 3.65332 63.2877 3.95397 63.9885 4.55528C64.6893 5.15658 65.0397 5.9756 65.0397 7.01233C65.0397 7.5535 64.9381 8.05528 64.7329 8.51766L64.737 8.51974ZM62.6013 5.66458C62.2198 5.30587 61.6227 5.12755 60.8057 5.12755H60.3268C60.1837 5.12755 60.0344 5.13792 59.881 5.16073V9.2496C60.0137 9.2724 60.1464 9.28899 60.2791 9.29936C60.4118 9.30973 60.5445 9.31595 60.6772 9.31595C61.4381 9.30558 62.0457 9.1086 62.4977 8.72916C62.9497 8.34764 63.1757 7.8272 63.1757 7.16577C63.1757 6.50433 62.9849 6.02744 62.6055 5.66873L62.6013 5.66458Z" fill="black"/>
<path d="M75.6174 5.02823V10.6224C75.6174 12.1236 75.2338 13.2371 74.4666 13.9649C73.6994 14.6926 72.5777 15.0576 71.0993 15.0576C70.216 15.0576 69.4986 14.9477 68.947 14.7258C68.3955 14.506 67.9642 14.2095 67.6553 13.8404C67.3463 13.4714 67.1348 13.0484 67.0187 12.5736C66.9026 12.0987 66.8445 11.6032 66.8445 11.0848V5.02823C66.6559 5.00542 66.4693 4.97846 66.2826 4.94529C66.094 4.91211 65.9177 4.87272 65.7539 4.82918V3.71987H69.8925V4.82918C69.6935 4.88516 69.4861 4.92663 69.2726 4.95358C69.0569 4.98054 68.8454 5.00542 68.636 5.02823V10.9542C68.636 11.3295 68.6713 11.6778 68.7438 11.9971C68.8143 12.3164 68.945 12.5922 69.1337 12.8244C69.3203 13.0567 69.5836 13.2391 69.9195 13.3698C70.2554 13.5025 70.6825 13.5688 71.203 13.5688C71.655 13.5688 72.0469 13.5191 72.3786 13.4195C72.7104 13.32 72.982 13.1583 73.1976 12.9302C73.4133 12.7042 73.5729 12.4098 73.6766 12.0448C73.7824 11.6799 73.8342 11.2403 73.8342 10.722V5.02823C73.6248 5.00542 73.4091 4.98054 73.1893 4.95358C72.9696 4.92663 72.7643 4.88516 72.5777 4.82918V3.71987H76.7163V4.82918C76.3638 4.91833 75.9989 4.98468 75.6236 5.02823H75.6174ZM70.95 2.92574L70.2886 1.91596L72.8866 0.095459L73.6808 1.30429L70.95 2.92574V2.92574Z" fill="black"/>
<path d="M86.4845 12.6667C86.3455 13.0689 86.1112 13.4401 85.7816 13.776C85.4498 14.1119 85.004 14.3918 84.44 14.6116C83.8781 14.8314 83.1649 14.9433 82.3044 14.9433C81.9622 14.9433 81.5268 14.935 80.996 14.9185C80.4673 14.9019 79.8929 14.8936 79.275 14.8936H77.834V13.8009C78.0538 13.7449 78.286 13.7013 78.5286 13.6682C78.7712 13.635 79.02 13.608 79.273 13.5852V5.02804C79.02 5.00523 78.7712 4.97828 78.5286 4.9451C78.286 4.91193 78.0538 4.86838 77.834 4.8124V3.71968H79.2253C79.6441 3.71968 80.1708 3.71139 80.8053 3.6948C81.4397 3.67822 82.0929 3.66992 82.7668 3.66992C83.9922 3.66992 84.9128 3.9063 85.5307 4.38112C86.1486 4.85594 86.4575 5.5236 86.4575 6.38408C86.4575 6.95843 86.2833 7.4768 85.9371 7.93918C85.5887 8.40364 85.1284 8.73332 84.5561 8.93237V8.96555C84.9211 9.0319 85.2362 9.14801 85.5079 9.31389C85.7774 9.47976 85.9993 9.67882 86.1693 9.90897C86.3393 10.1412 86.47 10.3942 86.5591 10.6699C86.6483 10.9457 86.6918 11.2277 86.6918 11.5138C86.6918 11.8788 86.6234 12.2624 86.4845 12.6646V12.6667ZM84.4732 6.03782C84.4069 5.8512 84.2907 5.6874 84.1249 5.54848C83.959 5.41163 83.7413 5.30381 83.4717 5.22502C83.2022 5.1483 82.8683 5.1089 82.4702 5.1089C82.2173 5.1089 81.9726 5.11098 81.7425 5.1172C81.5102 5.12342 81.2842 5.13171 81.0644 5.14208V8.4534C81.2075 8.46377 81.3568 8.46999 81.5102 8.46999H82.0224C82.8601 8.46999 83.4945 8.31033 83.9258 7.99102C84.3571 7.67171 84.5707 7.23006 84.5707 6.66608C84.5707 6.43385 84.5375 6.22443 84.4711 6.03782H84.4732ZM84.581 10.7384C84.4421 10.5186 84.2555 10.3382 84.0191 10.2013C83.7827 10.0645 83.4987 9.96495 83.1669 9.90275C82.8352 9.84262 82.4723 9.81152 82.0742 9.81152H81.5932C81.4936 9.81152 81.3983 9.81359 81.3029 9.81981C81.2096 9.82603 81.1287 9.82811 81.0624 9.82811V13.3862C81.3713 13.4422 81.8067 13.4691 82.3707 13.4691C83.198 13.4691 83.8076 13.2908 84.1995 12.9321C84.5914 12.5734 84.7863 12.1131 84.7863 11.5512C84.7863 11.2318 84.7179 10.9602 84.579 10.7404L84.581 10.7384Z" fill="black"/>
<path d="M87.998 14.8918V13.7991C88.2178 13.7431 88.4501 13.6995 88.6927 13.6664C88.9353 13.6332 89.1841 13.6062 89.437 13.5834V5.02833C89.1841 5.00552 88.9353 4.97856 88.6927 4.94539C88.4501 4.91221 88.2178 4.86867 87.998 4.81269V3.71997H92.6654V4.81269C92.4436 4.86867 92.2134 4.91221 91.9708 4.94539C91.7282 4.97856 91.4794 5.00552 91.2264 5.02833V13.403H93.7581C93.8141 12.9718 93.8908 12.4928 93.9904 11.962H95.2821V14.8918H88.0001H87.998Z" fill="black"/>
<path d="M95.9238 14.8918V13.7991C96.1436 13.7431 96.3758 13.6995 96.6184 13.6664C96.861 13.6332 97.1098 13.6062 97.3628 13.5834V5.02833C97.1098 5.00552 96.861 4.97856 96.6184 4.94539C96.3758 4.91221 96.1436 4.86867 95.9238 4.81269V3.71997H100.591V4.81269C100.369 4.86867 100.139 4.91221 99.8966 4.94539C99.654 4.97856 99.4052 5.00552 99.1522 5.02833V13.5855C99.4052 13.6083 99.654 13.6353 99.8966 13.6684C100.139 13.7016 100.371 13.7452 100.591 13.8011V14.8939H95.9238V14.8918Z" fill="black"/>
<path d="M108.569 6.86532C108.513 6.58955 108.472 6.33244 108.445 6.09607C108.418 5.85969 108.393 5.62954 108.37 5.40975C108.117 5.3434 107.877 5.29986 107.651 5.27705C107.425 5.25424 107.191 5.24387 106.948 5.24387C106.407 5.24387 105.936 5.34547 105.532 5.55074C105.13 5.75602 104.794 6.03594 104.522 6.39464C104.253 6.75335 104.051 7.18463 103.919 7.68641C103.786 8.18819 103.72 8.73766 103.72 9.33274C103.72 9.97344 103.788 10.5436 103.927 11.0454C104.066 11.5472 104.284 11.9723 104.58 12.3206C104.879 12.6689 105.258 12.9323 105.723 13.1147C106.187 13.2972 106.743 13.3884 107.394 13.3884C107.813 13.3884 108.246 13.3428 108.694 13.2474C109.14 13.1541 109.54 13.0297 109.894 12.8742L110.011 14.5288C109.546 14.6843 109.061 14.8067 108.555 14.9021C108.047 14.9954 107.522 15.0431 106.983 15.0431C105.229 15.0431 103.912 14.5662 103.035 13.6124C102.158 12.6586 101.719 11.3316 101.719 9.63132C101.719 8.74802 101.831 7.9373 102.059 7.19915C102.285 6.461 102.627 5.82444 103.085 5.29571C103.543 4.76698 104.122 4.35228 104.823 4.0537C105.524 3.75513 106.353 3.60791 107.313 3.60791C107.732 3.60791 108.163 3.63487 108.605 3.69085C109.046 3.74683 109.482 3.82355 109.913 3.92308V6.86947H108.572L108.569 6.86532Z" fill="black"/>
<path d="M117.938 14.8918V13.7991C118.126 13.7555 118.329 13.7161 118.549 13.683C118.769 13.6498 118.985 13.6228 119.194 13.6L118.616 12.0283H114.197L113.635 13.6C113.845 13.6228 114.06 13.6498 114.28 13.683C114.5 13.7161 114.705 13.7555 114.892 13.7991V14.8918H110.869V13.7991C111.012 13.7555 111.17 13.7182 111.342 13.6913C111.512 13.6643 111.676 13.6394 111.831 13.6166L115.389 3.71997H117.558L121.166 13.6166C121.319 13.6394 121.483 13.6643 121.653 13.6913C121.823 13.7182 121.981 13.7555 122.126 13.7991V14.8918H117.938V14.8918ZM116.911 7.24486C116.801 6.95872 116.708 6.67673 116.629 6.40096C116.552 6.12519 116.48 5.83283 116.414 5.52388H116.38C116.324 5.81002 116.254 6.10238 116.165 6.40096C116.076 6.69954 115.976 6.99604 115.866 7.29462L114.657 10.6205H118.149L116.907 7.24486H116.911Z" fill="black"/>
<path d="M46.0144 24.4336C45.8112 24.8959 45.5188 25.2961 45.1373 25.6341C44.7558 25.97 44.2996 26.2354 43.7626 26.4282C43.2276 26.6211 42.6346 26.7185 41.9835 26.7185H41.5854C41.4424 26.7185 41.2972 26.7081 41.1542 26.6853V29.499C41.4071 29.5218 41.6559 29.5488 41.8985 29.582C42.1411 29.6151 42.3734 29.6587 42.5931 29.7147V30.8074H37.9258V29.7147C38.1456 29.6587 38.3778 29.6151 38.6204 29.582C38.863 29.5488 39.1118 29.5218 39.3648 29.499V20.9418C39.1118 20.919 38.863 20.8921 38.6204 20.8589C38.3778 20.8257 38.1456 20.7822 37.9258 20.7262V19.6335H39.1844C39.3171 19.6335 39.4954 19.6314 39.7214 19.6252C39.9474 19.619 40.1983 19.6107 40.4741 19.6003C40.7498 19.5899 41.036 19.5817 41.3346 19.5754C41.6331 19.5692 41.9255 19.5671 42.2116 19.5671C43.5469 19.5671 44.565 19.8678 45.2658 20.4691C45.9667 21.0704 46.3171 21.8894 46.3171 22.9261C46.3171 23.4673 46.2155 23.9691 46.0102 24.4315L46.0144 24.4336ZM43.8787 21.5784C43.4972 21.2197 42.9 21.0414 42.0831 21.0414H41.6041C41.461 21.0414 41.3117 21.0517 41.1583 21.0745V25.1634C41.291 25.1862 41.4237 25.2028 41.5564 25.2132C41.6891 25.2235 41.8218 25.2298 41.9545 25.2298C42.7155 25.2194 43.323 25.0224 43.775 24.643C44.227 24.2615 44.453 23.741 44.453 23.0796C44.453 22.4181 44.2623 21.9413 43.8828 21.5825L43.8787 21.5784Z" fill="black"/>
<path d="M57.2019 27.5626C56.9199 28.2904 56.5363 28.9082 56.0511 29.4162C55.5659 29.9242 54.9978 30.3099 54.3467 30.5753C53.6956 30.8407 53.001 30.9713 52.2608 30.9713C51.4107 30.9713 50.6725 30.8386 50.0422 30.5753C49.4139 30.3099 48.8894 29.9325 48.4705 29.4411C48.0517 28.9497 47.7386 28.3588 47.5354 27.6704C47.3301 26.9799 47.2285 26.2045 47.2285 25.344C47.2285 24.4171 47.3695 23.5898 47.6494 22.862C47.9314 22.1342 48.315 21.5184 48.8002 21.0167C49.2854 20.5149 49.8535 20.1313 50.5046 19.8659C51.1557 19.6005 51.8503 19.4678 52.5905 19.4678C53.3307 19.4678 54.0253 19.5839 54.6432 19.8161C55.2611 20.0483 55.7898 20.3988 56.2315 20.8674C56.6731 21.336 57.0153 21.9207 57.2579 22.6215C57.5004 23.3223 57.6228 24.1414 57.6228 25.0786C57.6228 26.0158 57.4818 26.8327 57.2019 27.5605V27.5626ZM54.863 22.128C54.2928 21.4044 53.48 21.0415 52.4267 21.0415C51.9933 21.0415 51.5786 21.1265 51.1785 21.2986C50.7783 21.4707 50.4299 21.7278 50.1314 22.07C49.8328 22.4121 49.5902 22.8392 49.4077 23.3472C49.2253 23.8552 49.134 24.4482 49.134 25.1221C49.134 25.7524 49.2004 26.3309 49.3331 26.8555C49.4658 27.3801 49.6648 27.828 49.9323 28.1991C50.1977 28.5703 50.5357 28.8564 50.9462 29.0617C51.3568 29.267 51.8399 29.3686 52.3935 29.3686C52.8041 29.3686 53.2084 29.2856 53.6086 29.1197C54.0087 28.9539 54.3654 28.6988 54.6805 28.3567C54.9957 28.0146 55.2487 27.5854 55.4374 27.0712C55.626 26.5569 55.7193 25.9515 55.7193 25.2548C55.7193 23.8946 55.4332 22.8537 54.863 22.1301V22.128Z" fill="black"/>
<path d="M65.2026 30.8074L62.1898 25.9741H61.9099V29.499C62.3184 29.5322 62.6978 29.5986 63.0524 29.6981V30.8074H58.6836V29.7147C58.9034 29.6587 59.1356 29.6151 59.3782 29.582C59.6208 29.5488 59.8696 29.5218 60.1226 29.499V20.9418C59.8696 20.919 59.6208 20.8921 59.3782 20.8589C59.1356 20.8257 58.9034 20.7822 58.6836 20.7262V19.6335H59.9754C60.0853 19.6335 60.2449 19.6314 60.4543 19.6252C60.6638 19.619 60.9105 19.6107 61.1904 19.6003C61.4724 19.5899 61.7751 19.5817 62.1007 19.5754C62.4262 19.5692 62.76 19.5671 63.1021 19.5671C63.6765 19.5671 64.2032 19.6231 64.6821 19.733C65.1611 19.8429 65.5758 20.0171 65.9241 20.2535C66.2725 20.4919 66.5399 20.8029 66.7266 21.1886C66.9132 21.5743 67.0085 22.0429 67.0085 22.5944C67.0085 23.0132 66.936 23.3968 66.7929 23.7452C66.6498 24.0935 66.4446 24.3962 66.1812 24.6554C65.9158 24.9146 65.6048 25.1302 65.2461 25.3003C64.8874 25.4724 64.4934 25.5905 64.0622 25.6569C64.1824 25.8 64.2965 25.9513 64.4043 26.111C64.5121 26.2706 64.6158 26.4282 64.7132 26.5837L66.6436 29.4804C66.8199 29.5032 67.0085 29.5301 67.2055 29.5633C67.4046 29.5965 67.614 29.6359 67.8338 29.6794V30.8053H65.2026V30.8074ZM64.5432 21.4561C64.17 21.1803 63.6039 21.0414 62.8471 21.0414C62.6709 21.0414 62.505 21.0434 62.3453 21.0497C62.1857 21.0559 62.0405 21.0642 61.9099 21.0745V24.616C61.997 24.6264 62.1152 24.6347 62.2645 24.6409C62.4117 24.6471 62.5858 24.6492 62.7828 24.6492C63.5065 24.6492 64.0746 24.4812 64.4872 24.1453C64.8998 23.8094 65.1051 23.3595 65.1051 22.7955C65.1051 22.1776 64.9185 21.7318 64.5453 21.454L64.5432 21.4561Z" fill="black"/>
<path d="M76.0437 22.5968C75.9877 22.3106 75.9421 22.0452 75.9027 21.8026C75.8633 21.56 75.8343 21.334 75.8115 21.1246H73.7919V29.5014C74.0449 29.5242 74.2937 29.5512 74.5363 29.5843C74.7789 29.6175 75.0111 29.6611 75.2309 29.717V30.8077H70.5635V29.717C70.7833 29.6631 71.0156 29.6175 71.2582 29.5843C71.5008 29.5512 71.7496 29.5242 72.0025 29.5014V21.1246H69.9664C69.9436 21.334 69.9166 21.56 69.8835 21.8026C69.8503 22.0452 69.8067 22.3106 69.7507 22.5968H68.459V19.6338H77.3313V22.5968H76.0396H76.0437Z" fill="black"/>
<path d="M87.9455 20.942V26.5362C87.9455 28.0374 87.5619 29.1509 86.7947 29.8786C86.0275 30.6064 84.9058 30.9714 83.4274 30.9714C82.5441 30.9714 81.8267 30.8615 81.2752 30.6396C80.7236 30.4198 80.2923 30.1233 79.9834 29.7542C79.6745 29.3852 79.463 28.9622 79.3468 28.4874C79.2307 28.0125 79.1727 27.517 79.1727 26.9986V20.9399C78.984 20.9171 78.7974 20.8902 78.6108 20.857C78.4221 20.8238 78.2458 20.7844 78.082 20.7409V19.6316H82.2207V20.7409C82.0216 20.7969 81.8143 20.8383 81.6007 20.8653C81.3851 20.8923 81.1736 20.9171 80.9641 20.9399V26.8659C80.9641 27.2412 80.9994 27.5895 81.072 27.9089C81.1425 28.2282 81.2731 28.5039 81.4618 28.7362C81.6484 28.9684 81.9117 29.1509 82.2476 29.2815C82.5835 29.4142 83.0107 29.4805 83.5311 29.4805C83.9831 29.4805 84.375 29.4308 84.7067 29.3313C85.0385 29.2317 85.3101 29.07 85.5258 28.8419C85.7414 28.6159 85.9011 28.3215 86.0047 27.9565C86.1105 27.5916 86.1623 27.152 86.1623 26.6337V20.9399C85.9529 20.9171 85.7373 20.8943 85.5175 20.8653C85.2977 20.8383 85.0924 20.7969 84.9058 20.7409V19.6316H89.0444V20.7409C88.6919 20.8301 88.327 20.8964 87.9517 20.9399L87.9455 20.942Z" fill="black"/>
<path d="M99.9685 26.2625C99.7964 26.2895 99.6243 26.3144 99.448 26.3372V30.2933C98.8861 30.5152 98.2786 30.6831 97.6275 30.7972C96.9764 30.9133 96.3316 30.9714 95.6909 30.9714C94.8304 30.9714 94.0549 30.8449 93.3665 30.5919C92.6761 30.339 92.0914 29.9761 91.6124 29.5075C91.1314 29.0389 90.7623 28.4625 90.5031 27.7782C90.2439 27.094 90.1133 26.3227 90.1133 25.4601C90.1133 24.5975 90.2543 23.7868 90.5363 23.0528C90.8183 22.3188 91.2226 21.6864 91.7472 21.1577C92.2718 20.6289 92.9104 20.2163 93.6631 19.9239C94.4157 19.6316 95.2658 19.4844 96.2176 19.4844C96.738 19.4844 97.2481 19.5217 97.7519 19.5943C98.2537 19.6668 98.7658 19.7643 99.2842 19.8866V22.6962H97.9427C97.8867 22.4432 97.8432 22.1965 97.81 21.9601C97.7768 21.7237 97.7498 21.4936 97.727 21.2738C97.4513 21.2074 97.1734 21.1556 96.8977 21.1162C96.6219 21.0768 96.3503 21.0581 96.0849 21.0581C95.5209 21.0581 94.9942 21.1473 94.509 21.3215C94.0218 21.4977 93.5967 21.7652 93.2318 22.1218C92.8668 22.4805 92.5786 22.9222 92.3692 23.4509C92.1598 23.9796 92.054 24.5913 92.054 25.2839C92.054 26.5839 92.4003 27.5875 93.0908 28.2987C93.7812 29.0099 94.7309 29.3644 95.9376 29.3644C96.259 29.3644 96.5638 29.3437 96.85 29.2981C97.1382 29.2545 97.4098 29.1882 97.6628 29.099V26.3517C97.4098 26.3309 97.161 26.3019 96.9184 26.2687C96.6758 26.2356 96.4539 26.192 96.257 26.136V25.0433H100.462V26.1526C100.306 26.1962 100.145 26.2335 99.9726 26.2605L99.9685 26.2625Z" fill="black"/>
<path d="M111.184 20.942V26.5362C111.184 28.0374 110.8 29.1509 110.033 29.8786C109.266 30.6064 108.144 30.9714 106.666 30.9714C105.782 30.9714 105.065 30.8615 104.513 30.6396C103.962 30.4198 103.531 30.1233 103.222 29.7542C102.913 29.3852 102.699 28.9622 102.585 28.4874C102.469 28.0125 102.411 27.517 102.411 26.9986V20.9399C102.222 20.9171 102.036 20.8902 101.849 20.857C101.66 20.8238 101.484 20.7844 101.32 20.7409V19.6316H105.459V20.7409C105.26 20.7969 105.055 20.8383 104.839 20.8653C104.623 20.8923 104.412 20.9171 104.202 20.9399V26.8659C104.202 27.2412 104.238 27.5895 104.31 27.9089C104.383 28.2282 104.511 28.5039 104.7 28.7362C104.887 28.9684 105.15 29.1509 105.486 29.2815C105.822 29.4142 106.249 29.4805 106.769 29.4805C107.221 29.4805 107.613 29.4308 107.945 29.3313C108.277 29.2317 108.548 29.07 108.764 28.8419C108.98 28.6159 109.139 28.3215 109.243 27.9565C109.349 27.5916 109.401 27.152 109.401 26.6337V20.9399C109.191 20.9171 108.976 20.8943 108.756 20.8653C108.534 20.8383 108.331 20.7969 108.144 20.7409V19.6316H112.283V20.7409C111.93 20.8301 111.565 20.8964 111.19 20.9399L111.184 20.942Z" fill="black"/>
<path d="M113.4 30.8076V29.7128C113.62 29.6568 113.852 29.6132 114.095 29.5801C114.338 29.5469 114.586 29.5199 114.839 29.4971V20.9254C114.586 20.9047 114.338 20.8757 114.095 20.8446C113.852 20.8114 113.62 20.7679 113.4 20.7139V19.6357H120.799V22.3001H119.49C119.447 22.0679 119.407 21.844 119.374 21.6304C119.341 21.4148 119.314 21.2199 119.291 21.0436H116.627V24.4026H118.762C118.785 24.216 118.812 24.0356 118.845 23.8656C118.878 23.6956 118.922 23.5318 118.978 23.3783H120.104V26.7539H118.978C118.922 26.6005 118.878 26.4305 118.845 26.2501C118.812 26.0676 118.785 25.8935 118.762 25.7296H116.627V29.3541H119.308C119.331 29.155 119.357 28.9456 119.391 28.7258C119.424 28.506 119.467 28.2738 119.523 28.0312H120.832V30.8117H113.4V30.8076Z" fill="black"/>
<path d="M129.138 28.8542C128.939 29.2834 128.659 29.6566 128.294 29.9718C127.929 30.287 127.486 30.5317 126.961 30.7079C126.437 30.8841 125.85 30.9733 125.199 30.9733C124.295 30.9733 123.478 30.8779 122.75 30.6892V27.8797H124.075C124.118 28.1327 124.158 28.3794 124.191 28.6158C124.224 28.8521 124.251 29.0761 124.274 29.2855C124.429 29.3187 124.593 29.3456 124.772 29.3684C124.948 29.3912 125.114 29.4016 125.267 29.4016C125.586 29.4016 125.885 29.3684 126.161 29.3021C126.437 29.2357 126.677 29.1341 126.88 28.9973C127.083 28.8604 127.245 28.68 127.359 28.4603C127.475 28.2405 127.533 27.9813 127.533 27.6827C127.533 27.297 127.409 26.9881 127.16 26.7579C126.911 26.5278 126.607 26.3287 126.242 26.1629C125.877 25.997 125.477 25.8415 125.041 25.6922C124.606 25.5429 124.206 25.348 123.841 25.1054C123.476 24.8628 123.171 24.558 122.922 24.1889C122.673 23.8199 122.549 23.3326 122.549 22.7271C122.549 22.2544 122.64 21.8148 122.823 21.4126C123.005 21.0103 123.27 20.6661 123.617 20.38C123.965 20.0938 124.388 19.8699 124.892 19.7102C125.394 19.5506 125.964 19.4697 126.605 19.4697C127.003 19.4697 127.38 19.4884 127.739 19.5278C128.097 19.5672 128.464 19.6252 128.84 19.702V22.3995H127.515C127.459 22.1569 127.419 21.9206 127.39 21.6883C127.363 21.4561 127.339 21.2425 127.316 21.0435C127.229 21.0207 127.11 21.002 126.961 20.9854C126.812 20.9688 126.673 20.9605 126.542 20.9605C125.839 20.9605 125.315 21.1078 124.971 21.4001C124.624 21.6925 124.452 22.0698 124.452 22.5343C124.452 22.9096 124.577 23.2103 124.823 23.4363C125.07 23.6623 125.379 23.8592 125.748 24.0231C126.117 24.1889 126.515 24.3507 126.945 24.5124C127.374 24.672 127.772 24.8711 128.141 25.1075C128.51 25.3459 128.817 25.6445 129.066 26.0094C129.312 26.3744 129.437 26.8471 129.437 27.4318C129.437 27.9502 129.337 28.425 129.138 28.8563V28.8542Z" fill="black"/>
<path d="M137.084 30.8076V29.7148C137.271 29.6713 137.476 29.6319 137.696 29.5987C137.916 29.5656 138.131 29.5386 138.341 29.5158L137.762 27.9441H133.344L132.782 29.5158C132.991 29.5386 133.207 29.5656 133.426 29.5987C133.646 29.6319 133.852 29.6713 134.038 29.7148V30.8076H130.016V29.7148C130.159 29.6713 130.316 29.634 130.486 29.607C130.656 29.5801 130.82 29.5552 130.976 29.5324L134.534 19.6357H136.703L140.31 29.5324C140.466 29.5552 140.628 29.5801 140.8 29.607C140.97 29.634 141.127 29.6713 141.27 29.7148V30.8076H137.084V30.8076ZM136.058 23.1606C135.948 22.8745 135.855 22.5925 135.776 22.3167C135.699 22.041 135.626 21.7486 135.56 21.4397H135.527C135.471 21.7258 135.4 22.0182 135.311 22.3167C135.222 22.6153 135.123 22.9118 135.013 23.2104L133.804 26.5362H137.296L136.054 23.1606H136.058Z" fill="black"/>
</svg>
