<svg width="144" height="30" viewBox="0 0 144 37" fill="none" xmlns="http://www.w3.org/2000/svg">
<path d="M40.1056 19.9666L38.9811 19.1438L37.8585 19.9666L38.2856 18.6403L37.1435 17.8195H38.5501L38.9811 16.4756L39.4121 17.8195H40.8187L39.6765 18.6403L40.1036 19.9666H40.1056ZM38.5618 25.8105L37.4373 24.9877L36.3128 25.8105L36.7419 24.4842L35.5997 23.6633H37.0063L37.4373 22.3194L37.8683 23.6633H39.2749L38.1328 24.4842L38.5618 25.8105V25.8105ZM37.0063 12.0089L37.4373 10.663L37.8683 12.0069H39.2749L38.1328 12.8258L38.5618 14.1521L37.4373 13.3313L36.3128 14.1521L36.7419 12.8258L35.5997 12.0069H37.0063V12.0089ZM33.8856 8.58056L34.3126 9.90684L33.1901 9.08403L32.0636 9.90684L32.4907 8.58056L31.3505 7.75775L32.7571 7.76167L33.1881 6.4158L33.6191 7.75775H35.0277L33.8856 8.58056ZM34.297 30.0773L33.1725 29.2564L32.048 30.0773L32.475 28.751L31.3349 27.9302H32.7415L33.1725 26.5882L33.6034 27.9302H35.0101L33.8679 28.751L34.297 30.0773V30.0773ZM28.4844 31.623L27.3619 30.8021L26.2374 31.623L26.6645 30.2967L25.5243 29.4759H26.9309L27.3619 28.1319L27.7929 29.4759H29.2014L28.0593 30.2967L28.4864 31.623H28.4844ZM26.9289 6.19638L27.3599 4.85247L27.7909 6.19443H29.1995L28.0574 7.01527L28.4844 8.34155L27.3599 7.52071L26.2354 8.34155L26.6625 7.01527L25.5223 6.19443H26.9289V6.19638ZM22.6739 30.0792L21.5513 29.2584L20.4268 30.0792L20.8539 28.753L19.7118 27.9321H21.1184L21.5494 26.5902L21.9804 27.9321H23.387L22.2448 28.753L22.6719 30.0792H22.6739ZM21.1105 7.76167L21.5415 6.4158L21.9725 7.75971H23.3811L22.239 8.58056L22.666 9.90684L21.5415 9.08599L20.417 9.90684L20.8441 8.58056L19.702 7.75971H21.1086L21.1105 7.76167ZM17.9819 12.8493L18.409 14.1756L17.2845 13.3548L16.16 14.1756L16.5871 12.8493L15.445 12.0285H16.8516L17.2825 10.6846L17.7135 12.0285H19.1201L17.978 12.8493H17.9819ZM18.409 25.8163L17.2845 24.9935L16.16 25.8163L16.5871 24.4901L15.445 23.6692H16.8516L17.2825 22.3253L17.7135 23.6692H19.1201L17.978 24.4901L18.4051 25.8163H18.409ZM13.8855 17.841L15.2921 17.8449L15.7231 16.4971L16.1541 17.841H17.5607L16.4206 18.6619L16.8476 19.9881L15.7231 19.1673L14.5986 19.9881L15.0257 18.6619L13.8836 17.841H13.8855ZM0.728516 0.601318V36.1249H54.0109V0.601318H0.728516Z" fill="black"/>
<path d="M60.6055 8.5355V0.601318H66.0438V1.94327H62.208V3.82201H65.5188V5.16396H62.208V8.5355H60.6055Z" fill="black"/>
<path d="M67.3555 8.5355V2.78763H68.8757V8.5355H67.3555ZM67.3555 2.00792V0.601318H68.8757V2.00792H67.3555Z" fill="black"/>
<path d="M75.6643 8.53562H74.1441V5.60291C74.1441 4.98189 74.1108 4.58028 74.0461 4.39809C73.9815 4.2159 73.8757 4.07485 73.7288 3.97297C73.5818 3.8711 73.4075 3.82213 73.2018 3.82213C72.9393 3.82213 72.7022 3.89461 72.4926 4.03958C72.283 4.18455 72.14 4.37458 72.0616 4.61359C71.9832 4.85259 71.946 5.29142 71.946 5.93399V8.53758H70.4258V2.78774H71.8383V3.6321C72.3398 2.98169 72.9706 2.65845 73.7327 2.65845C74.0677 2.65845 74.3752 2.71918 74.6534 2.84064C74.9316 2.9621 75.1412 3.11491 75.2842 3.30298C75.4273 3.49105 75.5252 3.70262 75.582 3.94163C75.6369 4.18063 75.6663 4.52151 75.6663 4.96426V8.53562H75.6643Z" fill="black"/>
<path d="M80.378 5.77531C80.1841 5.83996 79.8745 5.91832 79.4514 6.00843C79.0302 6.09855 78.7539 6.18671 78.6227 6.27291C78.4248 6.41396 78.3249 6.59223 78.3249 6.80969C78.3249 7.02714 78.4033 7.20738 78.5639 7.36214C78.7226 7.51691 78.9244 7.59527 79.1693 7.59527C79.4435 7.59527 79.706 7.50515 79.9548 7.32492C80.139 7.18779 80.2605 7.01931 80.3173 6.82144C80.3565 6.69215 80.376 6.4453 80.376 6.07896V5.77531H80.378ZM78.3425 4.5411L76.9614 4.2923C77.1162 3.73593 77.3826 3.32453 77.7627 3.05809C78.1408 2.79166 78.705 2.65845 79.4514 2.65845C80.1292 2.65845 80.6346 2.73877 80.9677 2.89941C81.2988 3.06005 81.5338 3.2638 81.669 3.51064C81.8042 3.75748 81.8728 4.21198 81.8728 4.87218L81.8571 6.64709C81.8571 7.15252 81.8806 7.52474 81.9296 7.76375C81.9785 8.00471 82.0687 8.26135 82.2038 8.53562H80.6993C80.6601 8.43375 80.6111 8.28486 80.5524 8.08699C80.5269 7.99688 80.5093 7.9381 80.4975 7.90872C80.2369 8.16144 79.9607 8.35147 79.6649 8.47685C79.3691 8.60223 79.0537 8.66687 78.7167 8.66687C78.1251 8.66687 77.6588 8.50623 77.318 8.18495C76.9771 7.86366 76.8066 7.45814 76.8066 6.96641C76.8066 6.64121 76.885 6.35127 77.0398 6.09855C77.1945 5.84387 77.412 5.64993 77.6921 5.51475C77.9723 5.37958 78.3758 5.26203 78.9009 5.16016C79.612 5.02695 80.1037 4.90157 80.378 4.78598V4.63514C80.378 4.34324 80.3055 4.13362 80.1605 4.0102C80.0156 3.88482 79.7433 3.82409 79.3436 3.82409C79.0733 3.82409 78.8617 3.87698 78.7108 3.98473C78.56 4.09052 78.4366 4.27859 78.3425 4.54502V4.5411Z" fill="black"/>
<path d="M88.5999 8.53562H87.0796V5.60291C87.0796 4.98189 87.0463 4.58028 86.9817 4.39809C86.917 4.2159 86.8112 4.07485 86.6643 3.97297C86.5174 3.8711 86.343 3.82213 86.1373 3.82213C85.8748 3.82213 85.6378 3.89461 85.4281 4.03958C85.2185 4.18455 85.0755 4.37458 84.9971 4.61359C84.9188 4.85259 84.8816 5.29142 84.8816 5.93399V8.53758H83.3613V2.78774H84.7738V3.6321C85.2753 2.98169 85.9061 2.65845 86.6682 2.65845C87.0032 2.65845 87.3108 2.71918 87.589 2.84064C87.8672 2.9621 88.0768 3.11491 88.2198 3.30298C88.3628 3.49105 88.4608 3.70262 88.5176 3.94163C88.5744 4.18063 88.6018 4.52151 88.6018 4.96426V8.53562H88.5999Z" fill="black"/>
<path d="M95.1549 4.4882L93.6562 4.75855C93.6053 4.45881 93.4916 4.23352 93.3114 4.08268C93.1331 3.93183 92.9 3.85543 92.6159 3.85543C92.2378 3.85543 91.9342 3.98668 91.7089 4.24724C91.4836 4.50975 91.37 4.94662 91.37 5.5598C91.37 6.24156 91.4836 6.72348 91.7128 7.00559C91.942 7.28769 92.2496 7.42679 92.6355 7.42679C92.9235 7.42679 93.1605 7.34451 93.3447 7.17994C93.5288 7.01538 93.6581 6.73328 93.7345 6.33363L95.2293 6.58831C95.0745 7.27398 94.7768 7.79117 94.336 8.14184C93.8952 8.49251 93.3055 8.66687 92.567 8.66687C91.7265 8.66687 91.0565 8.4024 90.557 7.87149C90.0574 7.34059 89.8066 6.60594 89.8066 5.66951C89.8066 4.73308 90.0574 3.9808 90.5589 3.45382C91.0604 2.92487 91.7383 2.6604 92.5944 2.6604C93.2938 2.6604 93.8501 2.81125 94.2635 3.11294C94.6769 3.41464 94.9727 3.87306 95.1529 4.49016L95.1549 4.4882Z" fill="black"/>
<path d="M96.3066 8.5355V2.78763H97.8269V8.5355H96.3066ZM96.3066 2.00792V0.601318H97.8269V2.00792H96.3066Z" fill="black"/>
<path d="M102.56 5.77531C102.366 5.83996 102.056 5.91832 101.635 6.00843C101.214 6.09855 100.938 6.18671 100.806 6.27291C100.608 6.41396 100.509 6.59223 100.509 6.80969C100.509 7.02714 100.587 7.20738 100.748 7.36214C100.906 7.51691 101.108 7.59527 101.353 7.59527C101.627 7.59527 101.89 7.50515 102.138 7.32492C102.323 7.18779 102.444 7.01931 102.501 6.82144C102.54 6.69215 102.56 6.4453 102.56 6.07896V5.77531ZM100.524 4.5411L99.145 4.2923C99.2998 3.73593 99.5662 3.32453 99.9463 3.05809C100.324 2.79166 100.889 2.65845 101.635 2.65845C102.313 2.65845 102.818 2.73877 103.151 2.89941C103.482 3.06005 103.717 3.2638 103.853 3.51064C103.988 3.75748 104.056 4.21198 104.056 4.87218L104.041 6.64709C104.041 7.15252 104.064 7.52474 104.113 7.76375C104.162 8.00471 104.252 8.26135 104.387 8.53562H102.883C102.844 8.43375 102.795 8.28486 102.736 8.08699C102.71 7.99688 102.693 7.9381 102.681 7.90872C102.421 8.16144 102.144 8.35147 101.848 8.47685C101.553 8.60223 101.237 8.66687 100.9 8.66687C100.309 8.66687 99.8424 8.50623 99.5015 8.18495C99.1607 7.86366 98.9902 7.45814 98.9902 6.96641C98.9902 6.64121 99.0686 6.35127 99.2234 6.09855C99.3781 5.84387 99.5956 5.64993 99.8757 5.51475C100.156 5.37958 100.557 5.26203 101.084 5.16016C101.796 5.02695 102.287 4.90157 102.562 4.78598V4.63514C102.562 4.34324 102.489 4.13362 102.346 4.0102C102.201 3.88482 101.929 3.82409 101.529 3.82409C101.259 3.82409 101.047 3.87698 100.896 3.98473C100.746 4.09052 100.622 4.27859 100.528 4.54502L100.524 4.5411Z" fill="black"/>
<path d="M106.764 5.53814C106.764 6.15133 106.849 6.59603 107.019 6.8703C107.264 7.26799 107.607 7.46585 108.048 7.46585C108.398 7.46585 108.696 7.31696 108.941 7.01919C109.186 6.72141 109.309 6.27671 109.309 5.68507C109.309 5.02487 109.19 4.54882 108.953 4.25888C108.714 3.96894 108.41 3.82397 108.038 3.82397C107.666 3.82397 107.374 3.96698 107.131 4.25496C106.888 4.54098 106.764 4.97001 106.764 5.5401V5.53814ZM110.824 8.53746H109.411V7.6931C109.176 8.02223 108.9 8.26515 108.581 8.42579C108.261 8.58643 107.94 8.66675 107.615 8.66675C106.954 8.66675 106.388 8.40032 105.918 7.86942C105.448 7.33656 105.211 6.59407 105.211 5.64197C105.211 4.68987 105.44 3.9278 105.899 3.4204C106.357 2.91301 106.935 2.66029 107.636 2.66029C108.279 2.66029 108.833 2.92672 109.303 3.46154V0.601318H110.824V8.5355V8.53746Z" fill="black"/>
<path d="M113.528 5.66144C113.528 6.23153 113.663 6.6684 113.934 6.97205C114.204 7.27571 114.537 7.42655 114.935 7.42655C115.332 7.42655 115.664 7.27571 115.934 6.97205C116.202 6.6684 116.337 6.22957 116.337 5.65165C116.337 5.07373 116.202 4.65645 115.934 4.35279C115.665 4.04914 115.332 3.89829 114.935 3.89829C114.537 3.89829 114.204 4.04914 113.934 4.35279C113.663 4.65645 113.528 5.09332 113.528 5.6634V5.66144ZM111.969 5.58112C111.969 5.07569 112.094 4.58788 112.343 4.11379C112.592 3.64166 112.944 3.28119 113.401 3.03043C113.857 2.78163 114.367 2.65625 114.931 2.65625C115.801 2.65625 116.514 2.93835 117.068 3.50256C117.625 4.06677 117.901 4.77987 117.901 5.64381C117.901 6.50776 117.621 7.23457 117.058 7.80661C116.496 8.37865 115.791 8.66468 114.939 8.66468C114.412 8.66468 113.91 8.54517 113.432 8.30813C112.954 8.06912 112.59 7.72041 112.341 7.26003C112.092 6.79966 111.967 6.23936 111.967 5.57916L111.969 5.58112Z" fill="black"/>
<path d="M123.633 5.56373C123.633 6.21022 123.761 6.68627 124.017 6.9958C124.274 7.30533 124.586 7.45814 124.954 7.45814C125.322 7.45814 125.6 7.31709 125.835 7.03302C126.071 6.74896 126.188 6.28466 126.188 5.64013C126.188 5.03674 126.067 4.59008 125.826 4.29818C125.585 4.00628 125.285 3.85935 124.926 3.85935C124.568 3.85935 124.247 4.00236 124.002 4.29034C123.757 4.57636 123.633 5.00148 123.633 5.56569V5.56373ZM122.129 2.78774H123.547V3.6321C123.731 3.34412 123.98 3.10903 124.294 2.9288C124.607 2.74856 124.956 2.65845 125.338 2.65845C126.006 2.65845 126.572 2.92096 127.038 3.44403C127.505 3.9671 127.736 4.69587 127.736 5.63034C127.736 6.56481 127.501 7.33668 127.032 7.86758C126.564 8.40044 125.994 8.66492 125.328 8.66492C125.011 8.66492 124.723 8.60223 124.464 8.47489C124.206 8.34951 123.935 8.13205 123.649 7.82448V10.72H122.129V2.78774V2.78774Z" fill="black"/>
<path d="M132.359 5.16995C132.35 4.72916 132.234 4.39612 132.018 4.16692C131.803 3.93771 131.538 3.82408 131.229 3.82408C130.896 3.82408 130.624 3.94554 130.406 4.18651C130.191 4.42747 130.083 4.75659 130.087 5.17191H132.359V5.16995ZM132.273 6.70781L133.789 6.96249C133.596 7.51886 133.286 7.94202 132.867 8.23196C132.446 8.5219 131.921 8.66687 131.29 8.66687C130.291 8.66687 129.55 8.33971 129.07 7.68734C128.692 7.16427 128.502 6.50407 128.502 5.70673C128.502 4.75463 128.751 4.00823 129.248 3.46949C129.746 2.93075 130.377 2.6604 131.137 2.6604C131.991 2.6604 132.667 2.9425 133.161 3.50671C133.654 4.07092 133.891 4.93682 133.87 6.10246H130.059C130.069 6.55305 130.193 6.90372 130.428 7.15448C130.663 7.40524 130.955 7.53062 131.303 7.53062C131.542 7.53062 131.742 7.46597 131.905 7.33667C132.067 7.20737 132.189 6.99775 132.273 6.70977V6.70781Z" fill="black"/>
<path d="M135.107 8.5355V0.601318H136.63V8.5355H135.107Z" fill="black"/>
<path d="M141.358 5.77531C141.163 5.83996 140.855 5.91832 140.432 6.00843C140.011 6.09855 139.734 6.18671 139.603 6.27291C139.405 6.41396 139.305 6.59223 139.305 6.80969C139.305 7.02714 139.384 7.20738 139.544 7.36214C139.703 7.51691 139.905 7.59527 140.15 7.59527C140.424 7.59527 140.687 7.50515 140.933 7.32492C141.118 7.18779 141.239 7.01931 141.296 6.82144C141.335 6.69215 141.355 6.4453 141.355 6.07896V5.77531H141.358ZM139.323 4.5411L137.942 4.2923C138.097 3.73593 138.363 3.32453 138.743 3.05809C139.121 2.79166 139.685 2.65845 140.432 2.65845C141.11 2.65845 141.615 2.73877 141.948 2.89941C142.279 3.06005 142.514 3.2638 142.649 3.51064C142.785 3.75748 142.853 4.21198 142.853 4.87218L142.838 6.64709C142.838 7.15252 142.861 7.52474 142.91 7.76375C142.959 8.00471 143.049 8.26135 143.184 8.53562H141.68C141.641 8.43375 141.592 8.28486 141.533 8.08699C141.507 7.99688 141.49 7.9381 141.478 7.90872C141.217 8.16144 140.941 8.35147 140.645 8.47685C140.35 8.60223 140.034 8.66687 139.697 8.66687C139.106 8.66687 138.639 8.50623 138.298 8.18495C137.958 7.86366 137.787 7.45814 137.787 6.96641C137.787 6.64121 137.865 6.35127 138.02 6.09855C138.175 5.84387 138.392 5.64993 138.673 5.51475C138.953 5.37958 139.356 5.26203 139.881 5.16016C140.592 5.02695 141.084 4.90157 141.358 4.78598V4.63514C141.358 4.34324 141.286 4.13362 141.141 4.0102C140.996 3.88482 140.724 3.82409 140.324 3.82409C140.054 3.82409 139.842 3.87698 139.691 3.98473C139.54 4.09052 139.417 4.27859 139.323 4.54502V4.5411Z" fill="black"/>
<path d="M60.5859 13.9033H62.1884V18.2015C62.1884 18.8833 62.208 19.326 62.2472 19.5278C62.3158 19.853 62.4784 20.1135 62.737 20.3094C62.9956 20.5054 63.3482 20.6053 63.7949 20.6053C64.2415 20.6053 64.5922 20.5132 64.8234 20.3271C65.0545 20.141 65.1936 19.9137 65.2407 19.6414C65.2877 19.3711 65.3112 18.9224 65.3112 18.2936V13.9033H66.9137V18.0702C66.9137 19.0223 66.8706 19.6963 66.7844 20.0881C66.6982 20.4818 66.5375 20.8129 66.3064 21.0833C66.0733 21.3536 65.7618 21.5691 65.3719 21.7298C64.9821 21.8904 64.4747 21.9707 63.8458 21.9707C63.0877 21.9707 62.5136 21.8826 62.1218 21.7082C61.73 21.5339 61.4205 21.3066 61.1932 21.0265C60.966 20.7463 60.8171 20.4544 60.7446 20.1468C60.6388 19.6923 60.5879 19.0204 60.5879 18.1329V13.8994L60.5859 13.9033Z" fill="black"/>
<path d="M73.8186 21.8374H72.2984V18.9047C72.2984 18.2836 72.2651 17.882 72.2004 17.6998C72.1358 17.5176 72.03 17.3766 71.883 17.2747C71.7361 17.1729 71.5618 17.1239 71.3561 17.1239C71.0935 17.1239 70.8565 17.1964 70.6469 17.3413C70.4373 17.4863 70.2943 17.6763 70.2159 17.9153C70.1375 18.1543 70.1003 18.5932 70.1003 19.2357V21.8393H68.5801V16.0915H69.9926V16.9358C70.4941 16.2854 71.1249 15.9622 71.887 15.9622C72.222 15.9622 72.5295 16.0229 72.8077 16.1443C73.0859 16.2658 73.2955 16.4186 73.4385 16.6067C73.5815 16.7948 73.6795 17.0063 73.7363 17.2453C73.7931 17.4843 73.8206 17.8252 73.8206 18.268V21.8393L73.8186 21.8374Z" fill="black"/>
<path d="M75.3613 21.8375V16.0896H76.8816V21.8375H75.3613ZM75.3613 15.3099V13.9033H76.8816V15.3099H75.3613Z" fill="black"/>
<path d="M81.6104 19.0771C81.4165 19.1417 81.1069 19.2201 80.6838 19.3102C80.2626 19.4003 79.9864 19.4885 79.8551 19.5747C79.6572 19.7157 79.5573 19.894 79.5573 20.1095C79.5573 20.325 79.6357 20.5072 79.7963 20.662C79.955 20.8167 80.1568 20.8951 80.4017 20.8951C80.676 20.8951 80.9385 20.805 81.1873 20.6247C81.3714 20.4876 81.4929 20.3191 81.5497 20.1213C81.5889 19.992 81.6085 19.7451 81.6085 19.3788V19.0751L81.6104 19.0771ZM79.5652 15.3157H78.8717C78.8677 15.2334 78.8658 15.1688 78.8658 15.1217C78.8658 14.7436 78.9579 14.4517 79.142 14.248C79.3262 14.0443 79.5632 13.9424 79.8512 13.9424C79.9766 13.9424 80.0941 13.9561 80.2038 13.9835C80.3116 14.011 80.5094 14.0874 80.7954 14.2167C81.0815 14.344 81.3068 14.4087 81.4694 14.4087C81.5849 14.4087 81.6809 14.3734 81.7593 14.3009C81.8377 14.2284 81.8866 14.107 81.9082 13.9385H82.6115C82.6076 14.4263 82.5175 14.773 82.3372 14.9827C82.159 15.1923 81.9278 15.2961 81.6476 15.2961C81.5242 15.2961 81.4047 15.2843 81.2852 15.2589C81.2029 15.2373 80.9953 15.1629 80.6622 15.0375C80.3292 14.9121 80.0882 14.8475 79.9374 14.8475C79.8218 14.8475 79.7317 14.8827 79.667 14.9533C79.6024 15.0238 79.5671 15.1453 79.5632 15.3196L79.5652 15.3157ZM79.5769 17.8429L78.1958 17.5941C78.3505 17.0377 78.617 16.6263 78.997 16.3599C79.3751 16.0934 79.9393 15.9602 80.6857 15.9602C81.3636 15.9602 81.869 16.0405 82.2021 16.2012C82.5331 16.3618 82.7682 16.5656 82.9034 16.8124C83.0386 17.0593 83.1071 17.5138 83.1071 18.174L83.0915 19.9489C83.0915 20.4543 83.115 20.8265 83.1639 21.0675C83.2129 21.3065 83.303 21.5651 83.4382 21.8394H81.9337C81.8945 21.7375 81.8455 21.5886 81.7867 21.3907C81.7613 21.3006 81.7436 21.2418 81.7319 21.2125C81.4713 21.4652 81.1951 21.6552 80.8993 21.7806C80.6035 21.906 80.2881 21.9706 79.9511 21.9706C79.3595 21.9706 78.8932 21.81 78.5523 21.4887C78.2115 21.1674 78.041 20.7619 78.041 20.2701C78.041 19.9449 78.1194 19.655 78.2741 19.4023C78.4289 19.1476 78.6464 18.9537 78.9265 18.8185C79.2067 18.6833 79.6102 18.5658 80.1372 18.4639C80.8483 18.3307 81.3401 18.2053 81.6143 18.0897V17.9389C81.6143 17.647 81.5419 17.4374 81.3988 17.3139C81.2539 17.1905 80.9816 17.1278 80.5819 17.1278C80.3116 17.1278 80.1 17.1807 79.9491 17.2885C79.7983 17.3943 79.6749 17.5823 79.5808 17.8488L79.5769 17.8429Z" fill="black"/>
<path d="M85.8133 18.9634C85.8133 19.5335 85.9485 19.9704 86.2188 20.2741C86.4892 20.5777 86.8222 20.7286 87.2199 20.7286C87.6176 20.7286 87.9487 20.5777 88.219 20.2741C88.4874 19.9704 88.6226 19.5316 88.6226 18.9536C88.6226 18.3757 88.4874 17.9584 88.219 17.6548C87.9507 17.3511 87.6176 17.2003 87.2199 17.2003C86.8222 17.2003 86.4892 17.3511 86.2188 17.6548C85.9485 17.9584 85.8133 18.3953 85.8133 18.9654V18.9634ZM84.2539 18.8831C84.2539 18.3777 84.3793 17.8899 84.6281 17.4158C84.8769 16.9437 85.2295 16.5812 85.686 16.3324C86.1424 16.0836 86.6518 15.9583 87.214 15.9583C88.0839 15.9583 88.797 16.2404 89.3514 16.8046C89.9077 17.3688 90.1859 18.0838 90.1859 18.9458C90.1859 19.8078 89.9058 20.5366 89.3435 21.1086C88.7832 21.6807 88.076 21.9667 87.2238 21.9667C86.6969 21.9667 86.1953 21.8472 85.7173 21.6101C85.2393 21.3711 84.8749 21.0224 84.6261 20.562C84.3773 20.1017 84.252 19.5414 84.252 18.8812L84.2539 18.8831Z" fill="black"/>
<path d="M94.4668 21.8375V13.9033H100.35V15.2453H96.0673V17.0045H100.052V18.3406H96.0673V20.4995H100.501V21.8375H94.4668Z" fill="black"/>
<path d="M105.631 21.8375V20.9775C105.421 21.285 105.147 21.526 104.806 21.7023C104.465 21.8786 104.105 21.9668 103.726 21.9668C103.348 21.9668 102.994 21.8825 102.688 21.7121C102.381 21.5417 102.159 21.3046 102.022 20.997C101.885 20.6895 101.816 20.2663 101.816 19.7256V16.0877H103.337V18.7285C103.337 19.5376 103.364 20.0312 103.421 20.2134C103.478 20.3956 103.58 20.5406 103.726 20.6464C103.873 20.7522 104.061 20.807 104.289 20.807C104.549 20.807 104.78 20.7365 104.986 20.5935C105.192 20.4505 105.333 20.2742 105.409 20.0626C105.486 19.851 105.523 19.3338 105.523 18.511V16.0857H107.043V21.8336H105.631V21.8375Z" fill="black"/>
<path d="M110.075 21.8374H108.555V16.0895H109.967V16.9064C110.208 16.5205 110.426 16.2658 110.62 16.1424C110.813 16.019 111.031 15.9583 111.278 15.9583C111.625 15.9583 111.958 16.0542 112.279 16.2443L111.809 17.5706C111.552 17.404 111.315 17.3218 111.094 17.3218C110.872 17.3218 110.7 17.3805 110.553 17.4981C110.404 17.6156 110.288 17.8272 110.204 18.1348C110.12 18.4423 110.077 19.0829 110.077 20.0605V21.8354L110.075 21.8374Z" fill="black"/>
<path d="M114.139 18.9634C114.139 19.5335 114.275 19.9704 114.545 20.2741C114.815 20.5777 115.148 20.7286 115.546 20.7286C115.944 20.7286 116.275 20.5777 116.545 20.2741C116.814 19.9704 116.949 19.5316 116.949 18.9536C116.949 18.3757 116.814 17.9584 116.545 17.6548C116.277 17.3511 115.944 17.2003 115.546 17.2003C115.148 17.2003 114.815 17.3511 114.545 17.6548C114.275 17.9584 114.139 18.3953 114.139 18.9654V18.9634ZM112.58 18.8831C112.58 18.3777 112.705 17.8899 112.954 17.4158C113.203 16.9437 113.556 16.5812 114.012 16.3324C114.469 16.0836 114.978 15.9583 115.542 15.9583C116.412 15.9583 117.123 16.2404 117.679 16.8046C118.236 17.3688 118.514 18.0838 118.514 18.9458C118.514 19.8078 118.234 20.5366 117.672 21.1086C117.111 21.6807 116.404 21.9667 115.552 21.9667C115.025 21.9667 114.523 21.8472 114.045 21.6101C113.567 21.3711 113.203 21.0224 112.954 20.562C112.705 20.1017 112.58 19.5414 112.58 18.8812V18.8831Z" fill="black"/>
<path d="M121.165 18.8657C121.165 19.5122 121.292 19.9883 121.549 20.2978C121.805 20.6073 122.117 20.7601 122.485 20.7601C122.853 20.7601 123.134 20.6191 123.367 20.335C123.602 20.051 123.719 19.5867 123.719 18.9421C123.719 18.3387 123.598 17.8921 123.357 17.6002C123.116 17.3083 122.816 17.1614 122.458 17.1614C122.099 17.1614 121.778 17.3044 121.533 17.5923C121.288 17.8784 121.165 18.3035 121.165 18.8677V18.8657ZM119.66 16.0897H121.079V16.9341C121.263 16.6461 121.511 16.411 121.825 16.2308C122.138 16.0506 122.487 15.9604 122.869 15.9604C123.537 15.9604 124.103 16.223 124.57 16.746C125.036 17.2691 125.267 17.9979 125.267 18.9323C125.267 19.8668 125.032 20.6387 124.564 21.1696C124.095 21.7024 123.525 21.9669 122.859 21.9669C122.542 21.9669 122.254 21.9042 121.995 21.7769C121.737 21.6515 121.466 21.4341 121.18 21.1265V24.022H119.66V16.0878V16.0897Z" fill="black"/>
<path d="M129.893 18.4717C129.881 18.0309 129.767 17.6979 129.552 17.4687C129.336 17.2395 129.072 17.1258 128.762 17.1258C128.431 17.1258 128.157 17.2473 127.939 17.4883C127.724 17.7312 127.616 18.0583 127.62 18.4737H129.893V18.4717ZM129.806 20.0096L131.323 20.2642C131.129 20.8206 130.819 21.2438 130.4 21.5337C129.979 21.8237 129.454 21.9686 128.823 21.9686C127.824 21.9686 127.083 21.6415 126.603 20.9891C126.225 20.466 126.035 19.8058 126.035 19.0085C126.035 18.0564 126.284 17.31 126.782 16.7712C127.279 16.2325 127.91 15.9622 128.67 15.9622C129.526 15.9622 130.2 16.2443 130.694 16.8085C131.187 17.3727 131.425 18.2386 131.403 19.4042H127.593C127.602 19.8548 127.726 20.2055 127.961 20.4562C128.196 20.707 128.488 20.8324 128.837 20.8324C129.076 20.8324 129.275 20.7677 129.438 20.6384C129.601 20.5091 129.722 20.2995 129.806 20.0115V20.0096Z" fill="black"/>
<path d="M132.641 21.8375V16.0896H134.161V21.8375H132.641ZM132.641 15.3099V13.9033H134.161V15.3099H132.641Z" fill="black"/>
<path d="M138.894 19.0773C138.7 19.142 138.39 19.2203 137.967 19.3104C137.546 19.4006 137.27 19.4887 137.138 19.5749C136.94 19.716 136.841 19.8942 136.841 20.1097C136.841 20.3252 136.919 20.5074 137.08 20.6622C137.238 20.817 137.44 20.8953 137.685 20.8953C137.959 20.8953 138.222 20.8052 138.47 20.625C138.655 20.4878 138.776 20.3193 138.833 20.1215C138.872 19.9922 138.892 19.7453 138.892 19.379V19.0753L138.894 19.0773ZM136.858 17.8431L135.477 17.5943C135.632 17.0379 135.898 16.6265 136.278 16.3601C136.656 16.0937 137.221 15.9604 137.967 15.9604C138.645 15.9604 139.15 16.0408 139.483 16.2014C139.814 16.3621 140.049 16.5658 140.185 16.8126C140.32 17.0595 140.388 17.514 140.388 18.1742L140.373 19.9491C140.373 20.4545 140.396 20.8267 140.445 21.0677C140.494 21.3067 140.584 21.5653 140.719 21.8396H139.215C139.176 21.7377 139.127 21.5888 139.068 21.391C139.043 21.3008 139.025 21.2421 139.013 21.2127C138.753 21.4654 138.476 21.6554 138.181 21.7808C137.885 21.9062 137.569 21.9708 137.232 21.9708C136.641 21.9708 136.174 21.8102 135.834 21.4889C135.493 21.1676 135.322 20.7621 135.322 20.2704C135.322 19.9452 135.401 19.6552 135.555 19.4025C135.71 19.1478 135.928 18.9539 136.208 18.8187C136.488 18.6835 136.891 18.566 137.418 18.4641C138.13 18.3309 138.621 18.2055 138.896 18.0899V17.9391C138.896 17.6472 138.823 17.4376 138.678 17.3142C138.533 17.1907 138.261 17.128 137.861 17.128C137.591 17.128 137.379 17.1809 137.228 17.2887C137.078 17.3945 136.954 17.5825 136.86 17.849L136.858 17.8431Z" fill="black"/>
<path d="M60.5957 36.1131V29.2544H61.5263L65.129 34.6398V29.2544H65.9988V36.1131H65.0682L61.4655 30.7237V36.1131H60.5957Z" fill="black"/>
<path d="M70.8197 34.5125L71.6896 34.6202C71.5524 35.1296 71.2977 35.5234 70.9275 35.8035C70.5553 36.0837 70.0831 36.2247 69.5052 36.2247C68.7784 36.2247 68.2024 36.0014 67.7773 35.5527C67.3522 35.1061 67.1387 34.4772 67.1387 33.6701C67.1387 32.863 67.3542 32.1851 67.7852 31.7247C68.2162 31.2624 68.7745 31.0332 69.4602 31.0332C70.1458 31.0332 70.6669 31.2585 71.0881 31.711C71.5093 32.1636 71.7189 32.8003 71.7189 33.6192C71.7189 33.6681 71.7189 33.7445 71.715 33.8445H68.0105C68.0418 34.391 68.1966 34.8083 68.4728 35.0982C68.751 35.3882 69.0958 35.5332 69.5111 35.5332C69.8206 35.5332 70.0831 35.4528 70.3026 35.2902C70.52 35.1276 70.6944 34.869 70.8217 34.5144L70.8197 34.5125ZM68.0555 33.1509H70.8295C70.7923 32.7337 70.6865 32.4202 70.5122 32.2106C70.2438 31.8854 69.897 31.7247 69.468 31.7247C69.0821 31.7247 68.7569 31.854 68.4924 32.1126C68.2279 32.3712 68.0829 32.718 68.0555 33.1509Z" fill="black"/>
<path d="M72.1875 36.1129L74.0036 33.5309L72.3246 31.1448H73.3767L74.1387 32.3104C74.2817 32.5318 74.3973 32.7179 74.4855 32.8668C74.6226 32.6611 74.748 32.4789 74.8636 32.3202L75.7021 31.1467H76.707L74.9909 33.4858L76.8383 36.1149H75.8039L74.7833 34.5712L74.5109 34.1539L73.2062 36.1149H72.1855L72.1875 36.1129Z" fill="black"/>
<path d="M79.3761 35.3608L79.4976 36.1052C79.2605 36.1542 79.0489 36.1797 78.8609 36.1797C78.5553 36.1797 78.3182 36.1307 78.1497 36.0347C77.9813 35.9387 77.8618 35.8114 77.7952 35.6527C77.7266 35.496 77.6913 35.1629 77.6913 34.6594V31.8012H77.0742V31.1469H77.6913V29.9166L78.5278 29.4111V31.1469H79.3742V31.8012H78.5278V34.7065C78.5278 34.9474 78.5435 35.1002 78.5729 35.1688C78.6023 35.2374 78.6513 35.2922 78.7179 35.3334C78.7845 35.3745 78.8805 35.3941 79.0059 35.3941C79.0999 35.3941 79.2233 35.3823 79.3761 35.3608V35.3608Z" fill="black"/>
<path d="M83.5182 33.4234V32.6182L86.4235 32.6143V35.1591C85.9768 35.5137 85.5165 35.7821 85.0424 35.9623C84.5683 36.1425 84.0824 36.2307 83.5829 36.2307C82.909 36.2307 82.2977 36.0857 81.7472 35.7978C81.1967 35.5098 80.7814 35.0925 80.5013 34.5459C80.2211 33.9993 80.0801 33.3901 80.0801 32.7162C80.0801 32.0422 80.2192 31.4251 80.4993 30.8472C80.7775 30.2693 81.1791 29.8383 81.7041 29.5582C82.2292 29.278 82.8326 29.137 83.5143 29.137C84.0099 29.137 84.4586 29.2173 84.8602 29.3779C85.2618 29.5386 85.5752 29.7619 85.8025 30.0499C86.0297 30.3379 86.2041 30.712 86.3216 31.1724L85.5028 31.3977C85.3989 31.049 85.2716 30.7747 85.1188 30.5749C84.966 30.3751 84.7485 30.2164 84.4644 30.0949C84.1804 29.9754 83.865 29.9147 83.5202 29.9147C83.1049 29.9147 82.7464 29.9774 82.4447 30.1047C82.143 30.2321 81.8981 30.3966 81.712 30.6023C81.5259 30.808 81.3829 31.0353 81.279 31.2802C81.1047 31.7053 81.0165 32.1637 81.0165 32.6613C81.0165 33.2725 81.1223 33.7838 81.3319 34.1952C81.5415 34.6066 81.8491 34.9123 82.2507 35.1121C82.6523 35.3119 83.0794 35.4118 83.5319 35.4118C83.9257 35.4118 84.3077 35.3354 84.6819 35.1846C85.0561 35.0337 85.3402 34.8711 85.5341 34.7007V33.4234H83.5182V33.4234Z" fill="black"/>
<path d="M91.0541 34.5125L91.9239 34.6202C91.7868 35.1296 91.5321 35.5234 91.1619 35.8035C90.7916 36.0837 90.3175 36.2247 89.7396 36.2247C89.0128 36.2247 88.4368 36.0014 88.0117 35.5527C87.5866 35.1061 87.373 34.4772 87.373 33.6701C87.373 32.863 87.5885 32.1851 88.0195 31.7247C88.4505 31.2624 89.0089 31.0332 89.6945 31.0332C90.3802 31.0332 90.9013 31.2585 91.3225 31.711C91.7437 32.1636 91.9533 32.8003 91.9533 33.6192C91.9533 33.6681 91.9533 33.7445 91.9494 33.8445H88.2448C88.2762 34.391 88.4309 34.8083 88.7072 35.0982C88.9854 35.3882 89.3301 35.5332 89.7455 35.5332C90.055 35.5332 90.3175 35.4528 90.5369 35.2902C90.7544 35.1276 90.9287 34.869 91.0561 34.5144L91.0541 34.5125ZM88.2899 33.1509H91.0639C91.0267 32.7337 90.9209 32.4202 90.7465 32.2106C90.4782 31.8854 90.1314 31.7247 89.7024 31.7247C89.3164 31.7247 88.9912 31.854 88.7268 32.1126C88.4623 32.3712 88.3173 32.718 88.2899 33.1509Z" fill="black"/>
<path d="M92.9824 36.113V31.1449H93.7406V31.8521C94.105 31.3055 94.6319 31.0332 95.3215 31.0332C95.6213 31.0332 95.8955 31.0861 96.1463 31.1938C96.3971 31.3016 96.5851 31.4426 96.7105 31.617C96.8359 31.7914 96.9221 31.999 96.973 32.24C97.0044 32.3967 97.02 32.669 97.02 33.0589V36.113H96.1776V33.0902C96.1776 32.7474 96.1443 32.4907 96.0797 32.3203C96.015 32.1499 95.8975 32.0147 95.731 31.9128C95.5645 31.8109 95.3686 31.76 95.1433 31.76C94.7848 31.76 94.4752 31.8736 94.2147 32.1009C93.9541 32.3281 93.8248 32.7611 93.8248 33.3978V36.1111H92.9824V36.113Z" fill="black"/>
<path d="M101.712 34.5125L102.582 34.6202C102.445 35.1296 102.19 35.5234 101.82 35.8035C101.45 36.0837 100.976 36.2247 100.398 36.2247C99.671 36.2247 99.095 36.0014 98.6699 35.5527C98.2448 35.1061 98.0312 34.4772 98.0312 33.6701C98.0312 32.863 98.2467 32.1851 98.6777 31.7247C99.1087 31.2624 99.6671 31.0332 100.353 31.0332C101.038 31.0332 101.56 31.2585 101.981 31.711C102.402 32.1636 102.612 32.8003 102.612 33.6192C102.612 33.6681 102.612 33.7445 102.608 33.8445H98.903C98.9344 34.391 99.0891 34.8083 99.3654 35.0982C99.6436 35.3882 99.9884 35.5332 100.404 35.5332C100.713 35.5332 100.976 35.4528 101.195 35.2902C101.413 35.1276 101.587 34.869 101.714 34.5144L101.712 34.5125ZM98.9481 33.1509H101.722C101.685 32.7337 101.579 32.4202 101.405 32.2106C101.136 31.8854 100.79 31.7247 100.361 31.7247C99.9746 31.7247 99.6494 31.854 99.385 32.1126C99.1205 32.3712 98.9755 32.718 98.9481 33.1509V33.1509Z" fill="black"/>
<path d="M103.631 36.113V31.1449H104.389V31.8972C104.583 31.5445 104.761 31.3114 104.924 31.1997C105.088 31.0881 105.269 31.0312 105.465 31.0312C105.749 31.0312 106.037 31.1214 106.33 31.3036L106.04 32.0852C105.835 31.9638 105.629 31.903 105.423 31.903C105.239 31.903 105.075 31.9579 104.928 32.0696C104.781 32.1812 104.677 32.334 104.614 32.5299C104.52 32.8297 104.473 33.1568 104.473 33.5134V36.115H103.631V36.113Z" fill="black"/>
<path d="M110.073 35.4999C109.762 35.7643 109.462 35.9524 109.172 36.0621C108.884 36.1718 108.574 36.2267 108.243 36.2267C107.697 36.2267 107.278 36.0934 106.986 35.827C106.692 35.5606 106.547 35.2197 106.547 34.8044C106.547 34.5615 106.602 34.3381 106.713 34.1383C106.825 33.9365 106.97 33.7759 107.148 33.6544C107.327 33.533 107.53 33.4409 107.754 33.3782C107.918 33.3351 108.169 33.292 108.502 33.2528C109.182 33.1725 109.683 33.0745 110.005 32.9629C110.007 32.8473 110.009 32.7748 110.009 32.7435C110.009 32.4006 109.928 32.1577 109.77 32.0186C109.554 31.8286 109.235 31.7326 108.81 31.7326C108.414 31.7326 108.122 31.8012 107.932 31.9402C107.744 32.0793 107.603 32.3242 107.513 32.6769L106.69 32.5652C106.764 32.2126 106.888 31.9285 107.06 31.711C107.233 31.4936 107.479 31.3271 107.805 31.2095C108.13 31.092 108.504 31.0332 108.931 31.0332C109.358 31.0332 109.701 31.0822 109.965 31.1821C110.23 31.282 110.426 31.4074 110.549 31.5582C110.673 31.7091 110.761 31.9011 110.812 32.1322C110.839 32.2752 110.855 32.5338 110.855 32.908V34.0306C110.855 34.8142 110.872 35.3079 110.908 35.5155C110.943 35.7232 111.015 35.921 111.121 36.1111H110.242C110.153 35.9367 110.099 35.733 110.073 35.4979V35.4999ZM110.003 33.6192C109.697 33.7445 109.239 33.8503 108.627 33.9365C108.281 33.9855 108.036 34.0423 107.893 34.105C107.75 34.1677 107.638 34.2578 107.56 34.3793C107.481 34.4988 107.442 34.632 107.442 34.7789C107.442 35.0042 107.526 35.1903 107.697 35.3412C107.867 35.4901 108.116 35.5665 108.443 35.5665C108.77 35.5665 109.056 35.4959 109.309 35.3529C109.562 35.2119 109.748 35.016 109.866 34.7711C109.956 34.5811 110.001 34.3009 110.001 33.9287V33.6192H110.003Z" fill="black"/>
<path d="M113.999 35.3608L114.121 36.1052C113.884 36.1542 113.672 36.1797 113.484 36.1797C113.178 36.1797 112.941 36.1307 112.773 36.0347C112.604 35.9387 112.485 35.8114 112.418 35.6527C112.35 35.496 112.314 35.1629 112.314 34.6594V31.8012H111.697V31.1469H112.314V29.9166L113.151 29.4111V31.1469H113.997V31.8012H113.151V34.7065C113.151 34.9474 113.167 35.1002 113.196 35.1688C113.225 35.2374 113.274 35.2922 113.341 35.3334C113.408 35.3745 113.504 35.3941 113.629 35.3941C113.723 35.3941 113.846 35.3823 113.999 35.3608V35.3608Z" fill="black"/>
<path d="M114.826 30.2222V29.2544H115.669V30.2222H114.826ZM114.826 36.1131V31.1449H115.669V36.1131H114.826Z" fill="black"/>
<path d="M116.639 33.629C116.639 32.7082 116.893 32.0264 117.407 31.5837C117.834 31.2154 118.355 31.0312 118.97 31.0312C119.654 31.0312 120.212 31.2546 120.645 31.7032C121.078 32.1518 121.295 32.7689 121.295 33.5584C121.295 34.1971 121.199 34.7006 121.007 35.0669C120.815 35.4332 120.537 35.7173 120.171 35.9211C119.805 36.1228 119.405 36.2247 118.97 36.2247C118.274 36.2247 117.712 36.0014 117.283 35.5547C116.854 35.108 116.641 34.4655 116.641 33.627L116.639 33.629ZM117.505 33.629C117.505 34.2657 117.644 34.7417 117.922 35.0591C118.2 35.3764 118.549 35.5332 118.97 35.5332C119.391 35.5332 119.736 35.3745 120.014 35.0552C120.292 34.7378 120.431 34.2519 120.431 33.5996C120.431 32.9844 120.292 32.5201 120.012 32.2028C119.732 31.8854 119.385 31.7287 118.972 31.7287C118.559 31.7287 118.202 31.8854 117.924 32.2008C117.646 32.5162 117.507 32.9923 117.507 33.627L117.505 33.629Z" fill="black"/>
<path d="M122.281 36.113V31.1449H123.039V31.8521C123.404 31.3055 123.931 31.0332 124.62 31.0332C124.92 31.0332 125.194 31.0861 125.445 31.1938C125.696 31.3016 125.884 31.4426 126.009 31.617C126.135 31.7914 126.221 31.999 126.272 32.24C126.303 32.3967 126.319 32.669 126.319 33.0589V36.113H125.476V33.0902C125.476 32.7474 125.443 32.4907 125.379 32.3203C125.314 32.1499 125.196 32.0147 125.03 31.9128C124.863 31.8109 124.667 31.76 124.442 31.76C124.084 31.76 123.774 31.8736 123.513 32.1009C123.253 32.3281 123.124 32.7611 123.124 33.3978V36.1111H122.281V36.113Z" fill="black"/>
<path d="M127.732 36.1131V29.2544H132.691V30.0635H128.639V32.1636H132.434V32.9688H128.639V35.304H132.849V36.1131H127.73H127.732Z" fill="black"/>
<path d="M138.609 29.2546H139.516V33.2178C139.516 33.9074 139.438 34.454 139.283 34.8595C139.126 35.265 138.846 35.5942 138.439 35.8488C138.031 36.1035 137.499 36.2308 136.836 36.2308C136.174 36.2308 135.669 36.1192 135.259 35.8978C134.85 35.6764 134.56 35.3552 134.384 34.9359C134.207 34.5167 134.121 33.9427 134.121 33.2159V29.2527H135.028V33.21C135.028 33.8055 135.083 34.2444 135.195 34.5265C135.304 34.8086 135.496 35.026 135.765 35.1788C136.035 35.3316 136.364 35.408 136.754 35.408C137.422 35.408 137.896 35.2572 138.18 34.9535C138.464 34.6519 138.605 34.07 138.605 33.208V29.2507L138.609 29.2546Z" fill="black"/>
</svg>
